<svg id="Layer_1" data-name="Layer 1" xmlns="http://www.w3.org/2000/svg" viewBox="0 0 287.628 182.159">
  <defs>
    <style>
      .cls-1 {
        fill: #fff;
      }
    </style>
  </defs>
  <title>d5ab4a51-5a0c-4e61-9f16-4e854a631802</title>
  <g>
    <path class="cls-1" d="M116.08,81.438S143.3,79.416,143.3,47.5,121.029,0,92.821,0H0V178.381H92.821s56.664,1.786,56.664-52.65C149.484,125.73,151.958,81.438,116.08,81.438ZM40.9,31.7H92.821s12.619,0,12.619,18.558S98.017,71.51,89.6,71.51H40.9ZM90.428,146.678H40.9V99.007H92.821s18.805-.247,18.805,24.5C111.626,144.134,97.871,146.471,90.428,146.678Z"/>
    <g>
      <path class="cls-1" d="M225.058,45.384c-68.6,0-68.535,68.535-68.535,68.535s-4.707,68.189,68.537,68.189c0,0,61.038,3.486,61.038-47.436H254.706s1.046,19.181-28.6,19.181c0,0-31.392,2.1-31.392-31.038h92.43S297.256,45.384,225.058,45.384Zm27.9,53.623h-58.6s3.837-27.5,31.392-27.5S252.96,99.007,252.96,99.007Z"/>
      <rect class="cls-1" x="186.684" y="10.507" width="73.594" height="21.972"/>
    </g>
  </g>
</svg>
