<svg id="Layer_1" data-name="Layer 1" xmlns="http://www.w3.org/2000/svg" xmlns:xlink="http://www.w3.org/1999/xlink" viewBox="0 0 933.862 676.979">
  <defs>
    <style>
      .cls-1 {
        fill: none;
      }

      .cls-2 {
        fill: url(#linear-gradient);
      }

      .cls-3 {
        fill: url(#linear-gradient-2);
      }

      .cls-4 {
        fill: url(#linear-gradient-3);
      }

      .cls-5 {
        fill: url(#linear-gradient-4);
      }

      .cls-6 {
        fill: url(#linear-gradient-5);
      }

      .cls-7 {
        fill: url(#linear-gradient-6);
      }
    </style>
    <linearGradient id="linear-gradient" x1="607.303" y1="253.39" x2="905.879" y2="503.925" gradientUnits="userSpaceOnUse">
      <stop offset="0" stop-color="#a5a5a7"/>
      <stop offset="0.329" stop-color="#815776"/>
      <stop offset="0.375" stop-color="#814b72"/>
      <stop offset="0.5" stop-color="#802d69"/>
      <stop offset="0.572" stop-color="#802265"/>
      <stop offset="0.784" stop-color="#661f5a"/>
      <stop offset="1" stop-color="#4f1c51"/>
    </linearGradient>
    <linearGradient id="linear-gradient-2" x1="517.209" y1="-82.211" x2="163.666" y2="530.144" gradientUnits="userSpaceOnUse">
      <stop offset="0.245" stop-color="#a5a5a7"/>
      <stop offset="0.508" stop-color="#815776"/>
      <stop offset="0.558" stop-color="#814b72"/>
      <stop offset="0.692" stop-color="#802d69"/>
      <stop offset="0.769" stop-color="#802265"/>
      <stop offset="0.883" stop-color="#661f5a"/>
      <stop offset="1" stop-color="#4f1c51"/>
    </linearGradient>
    <linearGradient id="linear-gradient-3" x1="735.766" y1="44.142" x2="387.784" y2="646.865" xlink:href="#linear-gradient-2"/>
    <linearGradient id="linear-gradient-4" x1="1661.815" y1="-129.841" x2="-1340.587" y2="1603.596" gradientUnits="userSpaceOnUse">
      <stop offset="0" stop-color="#fff"/>
      <stop offset="0.131" stop-color="#a5a5a7"/>
      <stop offset="0.285" stop-color="#815776"/>
      <stop offset="0.325" stop-color="#814b72"/>
      <stop offset="0.435" stop-color="#802d69"/>
      <stop offset="0.497" stop-color="#802265"/>
      <stop offset="0.574" stop-color="#661f5a"/>
      <stop offset="0.652" stop-color="#4f1c51"/>
    </linearGradient>
    <linearGradient id="linear-gradient-5" x1="647.607" y1="-51.507" x2="-330.479" y2="513.191" xlink:href="#linear-gradient-4"/>
    <linearGradient id="linear-gradient-6" x1="-75.464" y1="679.59" x2="2812.341" y2="-1743.566" gradientUnits="userSpaceOnUse">
      <stop offset="0" stop-color="#a5a5a7"/>
      <stop offset="0.079" stop-color="#815776"/>
      <stop offset="0.176" stop-color="#802265"/>
      <stop offset="0.256" stop-color="#661f5a"/>
      <stop offset="0.338" stop-color="#4f1c51"/>
    </linearGradient>
  </defs>
  <title>13b394ad-416b-4961-af33-153dbd7b0cd4</title>
  <g>
    <path class="cls-1" d="M596.127,118.754c1.393-1.977,2.886-4.086,4.431-6.258-.528.6-1.055,1.107-1.581,1.768Z" transform="translate(0)"/>
    <path class="cls-2" d="M759.037,72.561s34.5,34.839,25.893,86.043c0,0,94.39,32.058,68.759,115.221,0,0-15.76,48.817-76.507,44.98,0,0-36.891-11.78-40.244,28.453a35.988,35.988,0,0,0,2.542,19.175c14.43,42.114,40.3,120.194,40.3,120.194a103.827,103.827,0,0,1,1.717,12.864c18.9,119.164-92.472,173.149-92.472,173.149-3.888,1.59-7.682,2.97-11.441,4.277,45.243,1.209,81.771-15.4,123.217-50.851,85.462-73.093,47.229-209.157,47.229-209.157L838.613,383.4c36.2-12.457,79.974-43.4,94.276-119.722C932.889,263.674,957.509,89.7,759.037,72.561Z" transform="translate(0)"/>
    <path class="cls-1" d="M318.813,348.667" transform="translate(0)"/>
    <path class="cls-3" d="M448.984,517.771l-4.779,7.678-16.88,20.637c-33.735,46.1-97.832-39.357-97.832-39.357L105.717,242.47a105.871,105.871,0,0,1-12.144-18.076c-15.8-25.275-47.285-88.225-18.7-152.442C56.8,78.748,46.119,87.289,46.119,87.289-52.838,184,38.247,299.82,38.247,299.82L281.139,583.194c69.719,75.342,130.442,71.968,130.442,71.968,64.1,0,91.1-53.248,91.1-53.248l6.305-10.509-20.159-24.8Z" transform="translate(0)"/>
    <path class="cls-4" d="M582.493,470.387l146.2-248.157s22.848-43.062,22.951-93.752c.061-30.4.27-55.38-25.868-83.626a74.457,74.457,0,0,0-16.988-16.287c-30.237,5.871-63.967,25.116-97.72,69.394-3.529,4.789-7.153,9.823-10.507,14.537,9.34-10.6,18.66-11.726,18.66-11.726S660.1,85.04,663.47,125.522c0,0,6.185,21.365-53.1,126.587-8.906,14.9-19.217,31.456-31.238,49.959L521.77,401.792l-13.32,21.4L568.207,494.2Z" transform="translate(0)"/>
    <path class="cls-5" d="M771.031,499.491c4.488,64.362-59.066,87.217-59.066,87.217a78,78,0,0,1-44.191,1.8c-35.831-8.584-61.512-37.787-61.512-37.787l-42.54-50.547-59.757-71.006L451.335,367.2l-19.93-21.655-7.088,9.967,3.78,28.568.931,7.032A6.747,6.747,0,0,1,425.412,398l-9.106,4.653-36.137,18.466,73.3,89.174,39.841,48.836,20.159,24.8,24.2,29.766c35.329,40.542,81.4,61.937,129.451,63.221,3.759-1.308,7.553-2.688,11.441-4.277C678.559,672.64,789.935,618.655,771.031,499.491Z" transform="translate(0)"/>
    <path class="cls-6" d="M323.539,311.548l25.486-4.566,9.379-1.68,6.936-10.17-6.289-4.42-1.179-.829c-3.776-2.654,1.282-16.814,3.881-20.612l-1.885-2.049L250.778,139.016a285.075,285.075,0,0,0-28.247-30c-60.764-55.51-108.3-49.052-140.179-37.067-28.588,64.217,2.895,127.167,18.7,152.442-18.37-34.826-.225-57.266-.225-57.266,33.735-38.233,77.987,24.739,77.987,24.739l23.753,26.457L286.749,312.6l25.89,28.836,1.893,2.246L318.04,317.3A6.745,6.745,0,0,1,323.539,311.548Z" transform="translate(0)"/>
    <path class="cls-7" d="M508.289,71.546C496.482,87.57,483.55,106.4,483.55,106.4L392.275,250.338a8.362,8.362,0,0,0-11.2,2.283l-14.79,21.043c-.021.029-.031.062-.052.092a8.416,8.416,0,0,0,2.1,11.641l1.179.829,6.289,4.42-12.916,19.141-9.379,1.68-25.486,4.566a6.745,6.745,0,0,0-5.5,5.752l-3.509,26.385-2.978,22.387-1.625,12.215-7.069,53.145a6.748,6.748,0,0,0,9.758,6.9l46.258-23.638,10.828-5.533,36.137-18.466,9.106-4.653a6.747,6.747,0,0,0,3.617-6.892l-.931-7.032-3.78-28.568,7.088-9.967,5.949-8.366,11.117,7.814a8.241,8.241,0,0,0,3.58,1.354,8.359,8.359,0,0,0,8.153-3.4l14.79-21.043A8.3,8.3,0,0,0,468.208,304L588.652,114.268l2.85-4.49c.526-.662,1.053-1.17,1.581-1.768,3.355-4.713,6.978-9.747,10.507-14.537C637.343,49.2,671.074,29.95,701.311,24.08,668.061,1.726,588.2-33.29,508.289,71.546ZM405.8,342.382a6.739,6.739,0,0,0-1.189,4.79l4.434,33.5-43.785,22.375-15.071,7.7L335.813,418.1l10.428-14.979,8.632-12.4,8.369-12.022a14.877,14.877,0,0,0,2.1.212A15.048,15.048,0,1,0,350.3,363.865a14.875,14.875,0,0,0,1.87,7.124l-6.3,9.048-14.487,20.811-7.12,10.227,2.922-21.964,3.589-26.988,2.491-18.729,1.988-14.947,8.45-1.513,24.372-4.364a6.766,6.766,0,0,0,4.4-2.866l14.371-21.294,5.88,4.133,27.607,19.4-4.25,5.976Z" transform="translate(0)"/>
  </g>
</svg>
