<svg id="Layer_1" data-name="Layer 1" xmlns="http://www.w3.org/2000/svg" viewBox="0 0 167.601 167.6">
  <defs>
    <style>
      .cls-1 {
        fill: #fff;
      }
    </style>
  </defs>
  <title>ca3db7ef-526a-4c28-8002-291141ff83e7</title>
  <path class="cls-1" d="M149.6,0H18A17.989,17.989,0,0,0,0,18V149.6a17.989,17.989,0,0,0,18,18H149.6a17.989,17.989,0,0,0,18-18V18.1A17.947,17.947,0,0,0,149.6,0ZM53.3,67.8a25.453,25.453,0,0,1,2.4-3.9.1.1,0,0,1,.1-.1,25.6,25.6,0,0,1,2-2.6c0-.1.1-.1.1-.2.7-.8,1.4-1.5,2.2-2.3.1-.1.2-.1.2-.2.2-.2.5-.4.7-.6.1-.1.2-.2.3-.2.4-.4.9-.7,1.3-1.1a1.381,1.381,0,0,1,.4-.3c.2-.2.5-.3.7-.5.2-.1.3-.2.5-.3l.9-.6c.3-.2.5-.3.8-.5a62497081.628,62497081.628,0,0,1,1.2-.8l.6-.3a10.909,10.909,0,0,0,1.1-.6c.2-.1.3-.2.5-.2a5.937,5.937,0,0,0,.8-.4,1.689,1.689,0,0,1,.5-.2c.4-.1.7-.3,1.1-.4.1-.1.3-.1.4-.2.4-.1.8-.3,1.2-.4.2-.1.3-.1.5-.2.4-.1.7-.2,1.1-.3.1,0,.2-.1.4-.1.5-.1.9-.2,1.4-.3.1,0,.3-.1.4-.1.4-.1.8-.1,1.2-.2a.6.6,0,0,0,.4-.1c.5-.1,1-.1,1.5-.2h.2a7.084,7.084,0,0,1,1.4-.1h4c.4,0,.9.1,1.3.1h.3c.5.1,1,.1,1.5.2a.6.6,0,0,1,.4.1c.4.1.8.1,1.2.2.1,0,.3.1.4.1.5.1,1,.2,1.4.3.1,0,.2.1.4.1.4.1.7.2,1.1.3.2.1.3.1.5.2.4.1.8.3,1.2.4.1.1.3.1.4.2.4.1.7.3,1.1.4a1.689,1.689,0,0,0,.5.2c.3.1.6.3.9.4.2.1.3.2.5.2a10.909,10.909,0,0,1,1.1.6l.6.3a62497093.469,62497093.469,0,0,1,1.2.8c.3.2.5.3.8.5l.9.6c.2.1.3.2.5.3a4.233,4.233,0,0,0,.7.5,1.381,1.381,0,0,0,.4.3,12.669,12.669,0,0,1,1.3,1.1c.1.1.2.2.3.2.2.2.5.4.7.6l.2.2a23.908,23.908,0,0,1,2.2,2.3c.1.1.1.1.1.2a25.6,25.6,0,0,1,2,2.6l.1.1a25.453,25.453,0,0,1,2.4,3.9,33.6,33.6,0,0,1,3.9,15.8,34.3,34.3,0,0,1-68.6,0A32.254,32.254,0,0,1,53.3,67.8Zm95,69.8a10.712,10.712,0,0,1-10.7,10.7H30.2a10.712,10.712,0,0,1-10.7-10.7V67.8H34.2a51.683,51.683,0,0,0-2.4,15.8,52.2,52.2,0,1,0,104.4,0,54.924,54.924,0,0,0-2.4-15.8h14.7v69.8Zm.3-96.8a8.386,8.386,0,0,1-8.4,8.4H126.6a8.386,8.386,0,0,1-8.4-8.4V27.3a8.386,8.386,0,0,1,8.4-8.4h13.6a8.386,8.386,0,0,1,8.4,8.4Z"/>
</svg>
