<!-- Generator: Adobe Illustrator 21.1.0, SVG Export Plug-In  -->
<svg version="1.1"
	 xmlns="http://www.w3.org/2000/svg" xmlns:xlink="http://www.w3.org/1999/xlink" xmlns:a="http://ns.adobe.com/AdobeSVGViewerExtensions/3.0/"
	 x="0px" y="0px" width="177.494px" height="276.863px" viewBox="0 0 177.494 276.863"
	 style="enable-background:new 0 0 177.494 276.863;" xml:space="preserve">
<style type="text/css">
	.st0{fill:#EAEAEA;}
	.st1{fill:#FFFFFF;}
	.st2{opacity:0.82;}
</style>
<defs>
</defs>
<g>
	<g>
		<path class="st0" d="M25.832,27.402c0.178-0.676,0.623-1.068,1.211-1.068c0.712,0,1.104,0.518,0.872,1.406l-2.76,10.205
			c-0.16,0.623-0.517,1.014-1.157,1.014h-0.036c-0.677,0-0.997-0.303-1.246-0.836l-4.007-8.299l-2.173,8.084
			c-0.178,0.678-0.623,1.068-1.192,1.068c-0.713,0-1.122-0.516-0.873-1.406l2.707-10.113c0.195-0.695,0.641-1.105,1.3-1.105h0.106
			c0.642,0,1.051,0.357,1.3,0.908l3.829,7.979L25.832,27.402z"/>
		<path class="st0" d="M30.651,37.838c-0.16,0.693-0.677,1.139-1.407,1.139c-0.747,0-1.229-0.551-1.086-1.193l0.071-0.303
			c0.16-0.676,0.677-1.139,1.407-1.139c0.747,0,1.229,0.553,1.086,1.193L30.651,37.838z"/>
		<path class="st0" d="M32.912,33.635c0-3.775,3.08-7.426,7.39-7.426c3.365,0,5.609,2.369,5.609,5.467
			c0,3.775-3.081,7.426-7.408,7.426C35.155,39.102,32.912,36.734,32.912,33.635z M43.632,31.801c0-2.047-1.317-3.578-3.544-3.578
			c-2.885,0-4.896,2.742-4.896,5.287c0,2.066,1.317,3.58,3.543,3.58C41.619,37.09,43.632,34.348,43.632,31.801z"/>
		<path class="st0" d="M48.612,37.838c-0.16,0.693-0.677,1.139-1.407,1.139c-0.747,0-1.229-0.551-1.086-1.193l0.071-0.303
			c0.16-0.676,0.677-1.139,1.407-1.139c0.747,0,1.229,0.553,1.086,1.193L48.612,37.838z"/>
	</g>
</g>
<g>
	<path class="st0" d="M31.498,62.996C14.13,62.996,0,48.866,0,31.498S14.13,0,31.498,0s31.498,14.13,31.498,31.498
		S48.866,62.996,31.498,62.996z M31.498,2C15.233,2,2,15.232,2,31.498s13.233,29.498,29.498,29.498s29.498-13.232,29.498-29.498
		S47.763,2,31.498,2z"/>
</g>
<g>
	<path class="st1" d="M28.487,125.271c-1.915,0.002-3.591-0.354-5.268-1.189c1.327,6.939,8.633,10.996,8.633,10.996
		s-16.162-5.121-15.232-22.354c0.11-6.58,5.366-11.854,11.828-11.865c6.581-0.01,11.854,5.367,11.865,12.188
		C40.324,119.748,35.068,125.262,28.487,125.271z M72.869,41.799l0.108,69.283c0.012,7.777-3.806,15.082-10.26,19.281
		c-2.75,1.799-5.141,3.117-8.849,4.32c0,0-3.109,1.201-13.52,1.219c0,0,13.397-3.133,13.478-27.902l-0.104-66.172l-1.917-1.432
		L74.9,40.359L72.869,41.799z"/>
	<path class="st1" d="M117.048,135.781l-24.171,0.039c11.598-5.762,15.52-22.76,15.52-22.76
		C104.833,129.697,117.048,135.781,117.048,135.781z M133.732,92.199c-1.677-0.236-13.045-1.057-20.806,9.965l8.579-23.705
		C121.506,78.459,119.13,90.188,133.732,92.199z M175.921,135.689l-23.334,0.037l1.674-1.199L130.8,53.793l3.808-13.527l12.205-0.02
		l27.312,94.129L175.921,135.689z M133.972,92.199c-0.12,0-0.12,0-0.239,0H133.972z"/>
</g>
<g>
	<path class="st1" d="M16.05,245.037l43.961-100.625l22.035-0.135L37.96,245.029L16.05,245.037z M44.398,144.508l-28.331,0.172
		l0.179,29.338C17.215,167.842,21.871,146.66,44.398,144.508z M56.091,244.918l29.59-0.182l-0.214-35.004
		C84.499,216.16,75.347,243.164,56.091,244.918z"/>
	<path class="st1" d="M105.826,244.488l43.961-100.625l22.035-0.135L127.736,244.48L105.826,244.488z M134.175,143.959
		l-28.331,0.172l0.179,29.338C106.991,167.293,111.647,146.111,134.175,143.959z M145.867,244.369l29.59-0.182l-0.214-35.004
		C174.275,215.613,165.123,242.615,145.867,244.369z"/>
</g>
<g class="st2">
	<path class="st0" d="M27.231,264.221c0.552,0,0.997,0.445,0.997,0.998c0,0.551-0.445,0.996-0.997,0.996h-6.446l-0.908,3.402h5.093
		c0.57,0,1.016,0.445,1.016,0.996c0,0.553-0.445,0.998-1.016,0.998h-5.627l-1.086,4.078c-0.196,0.676-0.659,1.086-1.229,1.086
		c-0.713,0-1.14-0.518-0.891-1.371l2.689-10.08c0.195-0.693,0.658-1.104,1.246-1.104H27.231z"/>
	<path class="st0" d="M39.491,276.686c-0.712,0-1.122-0.533-0.891-1.389l2.672-9.973c0.195-0.693,0.658-1.104,1.246-1.104h7.052
		c0.534,0,0.979,0.445,0.979,0.98c0,0.551-0.445,0.979-0.979,0.979h-6.34l-0.872,3.26h5.004c0.552,0,0.997,0.426,0.997,0.979
		c0,0.535-0.445,0.961-0.997,0.961h-5.521l-0.908,3.348h5.912c0.534,0,0.979,0.445,0.979,0.98c0,0.551-0.445,0.979-0.979,0.979
		H39.491z"/>
	<path class="st0" d="M68.116,273.195c0-0.748-0.517-1.193-2.298-1.887c-1.905-0.766-3.205-1.621-3.205-3.348
		c0-2.352,2.119-3.918,4.79-3.918c1.924,0,3.045,0.605,3.864,1.229c0.285,0.215,0.499,0.48,0.499,0.926
		c0,0.605-0.481,1.068-1.068,1.068c-0.25,0-0.481-0.07-0.642-0.23c-0.837-0.695-1.674-1.051-2.813-1.051
		c-1.46,0-2.314,0.801-2.314,1.639c0,0.801,0.623,1.191,2.422,1.904c1.905,0.748,3.098,1.604,3.098,3.348
		c0,2.439-2.226,3.988-4.861,3.988c-1.62,0-3.383-0.426-4.63-1.602c-0.231-0.195-0.427-0.535-0.427-0.908
		c0-0.623,0.445-1.104,1.068-1.104c0.303,0,0.569,0.143,0.729,0.285c1.033,0.961,1.941,1.389,3.384,1.389
		C67.101,274.924,68.116,274.229,68.116,273.195z"/>
	<path class="st0" d="M87.89,275.707c-0.178,0.676-0.641,1.068-1.211,1.068c-0.712,0-1.14-0.518-0.891-1.406l2.458-9.117h-2.761
		c-0.552,0-1.015-0.463-1.015-1.016s0.463-1.016,1.015-1.016h8.263c0.553,0,1.016,0.463,1.016,1.016s-0.463,1.016-1.016,1.016
		h-3.312L87.89,275.707z"/>
	<path class="st0" d="M106.951,275.707c-0.178,0.676-0.641,1.068-1.211,1.068c-0.712,0-1.139-0.518-0.89-1.406l2.725-10.168
		c0.195-0.678,0.658-1.068,1.229-1.068c0.712,0,1.122,0.516,0.891,1.406L106.951,275.707z"/>
	<path class="st0" d="M126.924,275.955c-0.392,0.553-0.854,0.908-1.478,0.908h-0.089c-0.623,0-0.944-0.338-1.051-0.996
		l-1.567-10.203c-0.035-0.16-0.053-0.393-0.053-0.535c0-0.57,0.463-0.996,1.157-0.996s1.086,0.373,1.157,1.014l1.14,8.602
		l5.983-8.904c0.285-0.463,0.659-0.711,1.157-0.711c0.552,0,0.979,0.248,0.979,0.801c0,0.213-0.089,0.498-0.214,0.676
		L126.924,275.955z"/>
	<path class="st0" d="M155.923,275.154c0.035,0.195,0.071,0.428,0.071,0.57c0,0.57-0.463,1.051-1.122,1.051
		c-0.605,0-0.997-0.375-1.068-0.891l-0.374-2.209h-6.072l-1.691,2.404c-0.285,0.393-0.659,0.695-1.122,0.695
		c-0.552,0-0.908-0.338-0.908-0.873c0-0.213,0.089-0.498,0.267-0.713l7.373-10.256c0.355-0.516,0.837-0.891,1.549-0.891h0.054
		c0.747,0,1.086,0.41,1.211,1.051L155.923,275.154z M153.109,271.736l-0.855-5.039l-3.543,5.039H153.109z"/>
	<path class="st0" d="M169.642,276.686c-0.712,0-1.122-0.533-0.891-1.389l2.707-10.096c0.196-0.678,0.659-1.068,1.229-1.068
		c0.713,0,1.122,0.516,0.891,1.406l-2.457,9.152h5.377c0.553,0,0.997,0.445,0.997,0.998c0,0.568-0.444,0.996-0.997,0.996H169.642z"
		/>
</g>
</svg>