<!-- Generator: Adobe Illustrator 21.1.0, SVG Export Plug-In  -->
<svg version="1.1"
	 xmlns="http://www.w3.org/2000/svg" xmlns:xlink="http://www.w3.org/1999/xlink" xmlns:a="http://ns.adobe.com/AdobeSVGViewerExtensions/3.0/"
	 x="0px" y="0px" width="47.57px" height="56.895px" viewBox="0 0 47.57 56.895" style="enable-background:new 0 0 47.57 56.895;"
	 xml:space="preserve">
<style type="text/css">
	.st0{fill-rule:evenodd;clip-rule:evenodd;fill:#ED1C24;}
	.st1{fill-rule:evenodd;clip-rule:evenodd;fill:#FFF200;}
</style>
<defs>
</defs>
<g>
	<path class="st0" d="M6.728,7.253C15.419-2.029,31.532-3.051,41.63,7.991c4.475,5.586,6.717,12.224,5.696,20.401l-7.662,5.712
		l-0.967,8.923l-12.118,0.081c-1.728,1.67-3.693,1.624-5.211,0.043L9.089,43.117l-1.004-8.982l-7.728-5.51
		C-1.043,19.734,1.797,12.951,6.728,7.253L6.728,7.253z M43.253,26.55l-7.43,5.452l-0.716,7.004l-9.067,0.066
		c-1.395,1.795-2.981,1.658-4.206,0.035L12.67,39.08l-0.778-6.787l-7.576-5.778c-0.56-2.1-0.34-4.186,0.485-6.431L16.899,32.4
		c0.384,0.22,0.564-0.004,0.378-0.283L5.465,17.634c0.029-1.777,1.146-3.495,2.757-5.187l10.683,18.276
		c0.365,0.512,0.725,0.383,0.448-0.24L9.758,10.447c1.293-1.993,2.991-3.041,4.874-3.66l6.567,23.016
		c0.212,0.496,0.605,0.435,0.478-0.159L16.881,5.687c0.864-0.655,1.91-1.126,3.221-1.326c0.646-0.079,1.416-0.07,2.434-0.034
		l1.1,25.411c-0.033,0.801,0.408,0.635,0.423,0.027l0.873-25.332c0.75-0.043,1.499-0.055,2.25,0.018
		c1.318,0.117,2.609,0.501,3.417,1.204l-4.517,23.992c0.006,0.297,0.266,0.336,0.404,0.058l6.499-22.983
		c2.648,1.214,4.225,2.531,4.747,3.669l-9.345,20.057c-0.221,0.424,0.168,0.708,0.404,0.382l10.509-18.508
		c1.448,1.426,2.607,2.991,2.969,4.942L30.784,31.742c-0.546,0.654-0.251,0.844,0.243,0.242l11.685-11.831
		C43.496,21.875,43.849,23.891,43.253,26.55L43.253,26.55z"/>
	<path class="st1" d="M43.253,26.55l-7.43,5.452l-0.716,7.004l-9.067,0.066c-1.395,1.795-2.981,1.658-4.206,0.035L12.67,39.08
		l-0.778-6.787l-7.576-5.778c-0.56-2.1-0.34-4.186,0.485-6.431L16.899,32.4c0.384,0.22,0.564-0.004,0.378-0.283L5.465,17.634
		c0.029-1.777,1.146-3.495,2.757-5.187l10.683,18.276c0.365,0.512,0.725,0.383,0.448-0.24L9.758,10.447
		c1.293-1.993,2.991-3.041,4.874-3.66l6.567,23.016c0.212,0.496,0.605,0.435,0.478-0.159L16.881,5.687
		c0.864-0.655,1.91-1.126,3.221-1.326c0.646-0.079,1.416-0.07,2.434-0.034l1.1,25.411c-0.033,0.801,0.408,0.635,0.423,0.027
		l0.873-25.332c0.75-0.043,1.499-0.055,2.25,0.018c1.318,0.117,2.609,0.501,3.417,1.204l-4.517,23.992
		c0.006,0.297,0.266,0.336,0.404,0.058l6.499-22.983c2.648,1.214,4.225,2.531,4.747,3.669l-9.345,20.057
		c-0.221,0.424,0.168,0.708,0.404,0.382l10.509-18.508c1.448,1.426,2.607,2.991,2.969,4.942L30.784,31.742
		c-0.546,0.654-0.251,0.844,0.243,0.242l11.685-11.831C43.496,21.875,43.849,23.891,43.253,26.55L43.253,26.55z"/>
	<path class="st0" d="M43.976,47.499h3.269c0.089,0,0.162,0.072,0.162,0.16v8.989c0,0.088-0.073,0.16-0.162,0.16h-3.269
		c-0.089,0-0.162-0.072-0.162-0.16V47.66C43.815,47.572,43.887,47.499,43.976,47.499L43.976,47.499z"/>
	<path class="st0" d="M38.512,47.499h3.269c0.089,0,0.162,0.072,0.162,0.16v8.989c0,0.088-0.073,0.16-0.162,0.16h-3.269
		c-0.089,0-0.162-0.072-0.162-0.16V47.66C38.351,47.572,38.423,47.499,38.512,47.499L38.512,47.499z"/>
	<path class="st0" d="M29.078,50.057c1.836-0.077,3.684-0.072,5.508,0.123c1.122,0.155,1.967,0.661,2.134,1.847l0.045,1.689
		c0.002,0.215-0.089,0.31-0.258,0.326L29.992,54c-0.107,0.007-0.171,0.071-0.185,0.163c-0.111,0.842,0.146,1.363,0.944,1.412
		l1.531-0.016c0.251-0.012,0.739-0.374,0.782-0.729c0.011-0.195,0.1-0.282,0.292-0.29l2.929-0.003
		c0.285-0.002,0.407,0.105,0.391,0.35c-0.091,1.027-0.673,1.732-1.975,1.966c-1.506,0.062-3.611,0.035-5.448,0.038
		c-1.939-0.041-2.687-0.504-3.016-1.477c-0.274-1.177-0.268-2.476-0.042-3.586C26.458,50.801,27.186,50.15,29.078,50.057
		L29.078,50.057z M30.824,51.468c0.477-0.05,0.953-0.04,1.43,0.018c0.463,0.087,1.204,0.845,0.659,1.126
		c-0.946,0.03-1.885,0.028-2.819,0.009C29.691,52.262,30.08,51.596,30.824,51.468L30.824,51.468z"/>
	<path class="st0" d="M14.56,47.499h3.269c0.089,0,0.162,0.072,0.162,0.16v2.75c0.068,0.064,0.177,0.093,0.312,0.074
		c0.336-0.098,0.663-0.247,0.994-0.286c3.014-0.26,5.102,0.085,5.303,1.665l-0.038,2.246v2.541c0,0.088-0.073,0.16-0.162,0.16
		h-3.139c-0.088,0-0.162-0.072-0.162-0.16v-2.566v-0.18h0l0.001-1.283c-0.117-0.917-2.6-0.865-3.11-0.112v4.141
		c0,0.088-0.073,0.16-0.162,0.16H14.56c-0.089,0-0.162-0.072-0.162-0.16V47.66C14.399,47.572,14.471,47.499,14.56,47.499
		L14.56,47.499z"/>
	<path class="st0" d="M3.298,56.735c-2.389,0.005-2.841-1.238-2.852-2.829c-0.001-0.088,0.085-0.16,0.19-0.16h3.835
		c0.104,0,0.192,0.073,0.19,0.16c-0.018,0.58,0.091,1.091,0.79,1.233l2.352,0.013c0.667-0.077,0.966-0.624,0.89-1.445
		c-0.048-0.443-0.257-0.768-0.941-0.883l-4.341-0.102c-1.632-0.08-2.518-0.601-2.658-1.615l0.006-1.789
		c0.081-1.128,0.846-1.874,2.863-1.936l5.264-0.054c2.138-0.09,3.244,0.337,3.645,1.116c0.124,0.497,0.118,1.006,0.141,1.549
		c-0.02,0.193-0.144,0.283-0.37,0.271l-3.443-0.005c-0.167-0.008-0.248-0.093-0.245-0.255c0.139-1.067-0.549-1.274-1.944-1.244
		c-1.406,0.004-2.02,0.191-2.112,0.647c-0.137,0.981,0.143,1.565,1.032,1.566l3.341,0.06c2.788,0.046,3.78,0.844,3.83,2.147
		c0.282,2.317-0.439,3.207-1.648,3.47C8.56,56.838,5.976,56.934,3.298,56.735L3.298,56.735z"/>
</g>
</svg>