<!-- Generator: Adobe Illustrator 21.1.0, SVG Export Plug-In  -->
<svg version="1.1"
	 xmlns="http://www.w3.org/2000/svg" xmlns:xlink="http://www.w3.org/1999/xlink" xmlns:a="http://ns.adobe.com/AdobeSVGViewerExtensions/3.0/"
	 x="0px" y="0px" width="88.644px" height="54.001px" viewBox="0 0 88.644 54.001"
	 style="enable-background:new 0 0 88.644 54.001;" xml:space="preserve">
<style type="text/css">
	.st0{fill:#FFFFFF;}
	.st1{fill:#A07713;}
</style>
<defs>
</defs>
<g>
	<g>
		<path class="st0" d="M34.097,12.104c0.199,0.031,2.135,0.159,2.135,2.645v2.181c0,0.458,0.375,0.834,0.834,0.834h7.538
			c0.459,0,0.834-0.376,0.834-0.834v-4.756c0-0.459-0.375-0.834-0.834-0.834H34.097c-0.187,0-0.374,0.127-0.376,0.376
			C33.72,11.932,33.898,12.072,34.097,12.104z"/>
		<path class="st0" d="M47.917,42.129c-0.001-0.001-0.095-0.011-0.169-0.018c-2.013-0.161-2.311-2.383-2.311-4.16
			c0-0.515,0-17.652,0-17.652c0-0.458-0.375-0.833-0.834-0.833h-7.538c-0.459,0-0.834,0.375-0.834,0.833l0,20.807
			c0,0.638,0.279,1.108,0.709,1.352c0.868,0.494,2.148,0.964,3.811,1.289c0.449,0.087,1.216,0.068,1.477,0.042
			c2.201-0.218,5.744-1.114,5.745-1.114c0.106-0.042,0.18-0.145,0.18-0.265C48.155,42.269,48.052,42.152,47.917,42.129z"/>
		<path class="st0" d="M47.771,48.102c-0.055,0-0.106,0.017-0.15,0.044c-0.307,0.134-1.762,0.761-4.877,0.242
			c0,0-14.966-3-14.995-3.006c-0.248-0.061-0.375-0.372-0.109-0.593c1.147-0.951,1.478-1.997,1.478-3.957l-0.005-30.168V10.43
			c0-0.334-0.199-0.622-0.484-0.755c-0.106-0.05-0.225-0.079-0.35-0.079H25.77l-2.608,0h-0.058l-0.756,0h-1.091h-1.745h-1.611
			h-1.851H15.46c-0.606-0.001-0.631,0.783-0.058,0.849c0.143,0.017,0.282,0.036,0.42,0.057l-0.001,0
			c0.662,0.101,1.254,0.25,1.768,0.451c0.336,0.132,0.639,0.285,0.904,0.462c0.212,0.141,0.4,0.297,0.563,0.466v0
			c0.35,0.364,0.584,0.795,0.692,1.298c0.044,0.205,0.067,0.42,0.067,0.649v1.526v28.092c0,1.117-0.156,1.488-0.287,1.672
			c-0.838,1.188-2.528,1.784-3.993,1.976c-0.396,0.061-0.508,0.217-0.508,0.516c0,0.267,0.324,0.343,0.574,0.414
			c2.138,0.563,19.85,5.267,21.134,5.592c1.265,0.32,1.981,0.634,3.772,0.093c2.144-0.649,7.454-5.118,7.454-5.118
			c0.055-0.052,0.091-0.124,0.091-0.206C48.052,48.228,47.926,48.102,47.771,48.102z"/>
		<path class="st0" d="M87.118,41.012c-0.675-0.003-1.277,0.471-1.277,1.279c0,0.811,0.607,1.272,1.291,1.272
			c0.668-0.006,1.273-0.473,1.273-1.281C88.405,41.47,87.794,41.005,87.118,41.012z M87.126,43.267v-0.007
			c-0.504,0.007-0.91-0.386-0.918-0.974c-0.004-0.585,0.403-0.982,0.91-0.985c0.493,0.003,0.918,0.391,0.921,0.981
			C88.037,42.869,87.619,43.267,87.126,43.267z"/>
		<path class="st0" d="M67.325,17.361H62.39c-0.214-0.001-0.454-0.102-0.454-0.347l-0.001-4.84c0-0.459-0.375-0.834-0.834-0.834
			H50.797c-0.188,0-0.374,0.127-0.376,0.376c-0.002,0.216,0.177,0.357,0.376,0.388c0.198,0.031,2.135,0.159,2.135,2.645v2.149
			c-0.001,0.256-0.164,0.46-0.462,0.464H51.09c-0.248,0-0.54,0.182-0.65,0.404l-1.382,2.793c-0.11,0.222,0.003,0.404,0.25,0.404
			h3.165c0.296,0,0.456,0.146,0.456,0.439c0,0,0.005,19.691,0.005,19.705c0,0.638,0.253,1.108,0.683,1.352
			c0.868,0.494,2.149,0.964,3.811,1.289c0.449,0.087,1.216,0.068,1.477,0.042c2.201-0.218,5.744-1.114,5.744-1.114
			c0.106-0.042,0.181-0.145,0.181-0.265c0-0.141-0.103-0.258-0.237-0.281c-0.001-0.001-0.002-0.002-0.003-0.002
			c0,0-0.093-0.009-0.167-0.016c-2.013-0.161-2.484-2.383-2.484-4.16c0-0.065,0-16.525,0-16.525h0.001
			c0-0.313,0.163-0.465,0.46-0.465h3.108c0.248,0,0.542-0.181,0.653-0.402l1.412-2.796C67.684,17.542,67.573,17.361,67.325,17.361z"
			/>
		<path class="st0" d="M84.289,16.285c-5.303,0.189-10.551,0.58-14.043,1.295c-0.48,0.099-0.884,0.48-0.884,1.103v19.731
			c0,1.85,0.061,3.046,2.018,3.623l6.154,1.37c2.52,0.507,3.214,0.11,5.014-1.319c2.564-2.036,4.457-4.341,4.604-4.507l-0.002-0.002
			c0.051-0.051,0.083-0.123,0.083-0.202c0-0.153-0.116-0.278-0.258-0.278c-0.061,0-0.116,0.024-0.159,0.061
			c-0.092,0.053-0.355,0.221-0.712,0.351c-1.155,0.421-2.109,0.692-3.324,0.541c-1.488-0.185-3.048-0.452-4.457-0.906
			c-1.015-0.327-0.928-1.541-0.928-3.019v-3.904c0-0.164-0.023-0.543,0.324-0.606c1.394-0.253,6.561-0.16,9.02-2.279
			c0.883-0.761,1.906-2.257,1.906-4.903v-1.941C88.644,17.677,87.069,16.186,84.289,16.285z M77.894,28.302
			c-0.284,0-0.502-0.12-0.502-0.45v-9.079c0-0.331,0.269-0.518,0.557-0.601c0.378-0.108,0.71-0.131,1.001-0.085
			c1.961,0.311,2.066,3.158,2.066,4.733C81.018,24.63,80.806,28.302,77.894,28.302z"/>
		<path class="st0" d="M87.693,42.009c0.001-0.315-0.211-0.413-0.561-0.413l-0.514,0.001l0.004,1.373l0.286-0.001v-0.576h0.14
			l0.324,0.577h0.347l-0.347-0.606C87.55,42.349,87.693,42.259,87.693,42.009z M87.166,42.16h-0.258l-0.001-0.332h0.207
			c0.115,0,0.261,0.004,0.261,0.152C87.38,42.127,87.3,42.155,87.166,42.16z"/>
	</g>
	<g>
		<path class="st1" d="M21.256,9.596c0,0,0.142-0.496,1.018-3.477c0.054-0.206,0.135-0.377,0.203-0.447l0.093-0.11l-0.316-0.395
			l-0.128,0.079c-0.547,0.362-1.445,0.705-1.488,0.719c-0.006,0.001-0.079,0.031-0.079,0.031l-0.823,2.914
			c-0.065,0.23-0.141,0.46-0.224,0.684H21.256z"/>
		<path class="st1" d="M21.729,4.63c0.299-0.018,0.572-0.145,0.77-0.355c0.204-0.215,0.304-0.495,0.304-0.76
			c-0.006-0.243-0.109-0.467-0.286-0.63c-0.154-0.161-0.39-0.243-0.629-0.232c-0.276,0.007-0.557,0.139-0.757,0.36
			c-0.205,0.209-0.306,0.479-0.301,0.758v0.023c0.012,0.239,0.104,0.438,0.259,0.584C21.282,4.564,21.553,4.63,21.729,4.63z"/>
		<path class="st1" d="M16.916,13.182c0.91-0.026,1.601-0.606,2.141-1.3c-0.163-0.17-0.351-0.326-0.563-0.466
			c0.001-0.001,0.001-0.001,0.001-0.001c-0.236,0.253-0.48,0.408-0.719,0.417c-0.118,0.006-0.244-0.016-0.25-0.283
			c-0.004-0.14,0.019-0.345,0.064-0.595l-0.001,0.001c-0.514-0.201-1.106-0.351-1.768-0.451c-0.133,0.576-0.222,1.09-0.215,1.467
			C15.644,13.128,16.626,13.198,16.916,13.182z"/>
		<path class="st1" d="M39.029,6.155C36.364,6.896,32.767,8.12,28.63,9.674c0.284,0.133,0.484,0.422,0.484,0.755v0.233
			c3.555-1.582,7.174-2.982,10.277-3.948l0.153-0.048l-0.476-0.52L39.029,6.155z"/>
		<path class="st1" d="M25.77,9.595c0.305-0.3,0.617-0.717,0.921-1.292c0.17,0.472,0.554,0.726,1.081,0.706
			c1.067-0.03,2.031-0.92,2.738-2.507c0.257,0.647,0.799,0.986,1.562,0.97c1.301-0.048,2.703-1.559,3.227-2.882l-0.42,1.597
			l0.113,0.25l1.346-0.575l0.021-0.089c0.019-0.059,0.093-0.314,0.214-0.796c0.332-1.02,0.784-1.755,1.17-2.248
			c0.388-0.508,0.678-0.838,0.678-0.838c0.414,0.474,2.118,0.524,2.79-1.523l0.01-0.046L40.873,0L40.82,0.091
			c-0.473,0.882-0.997,1.139-1.281,0.997c-0.19-0.089-0.244-0.409-0.152-0.921l0.022-0.091l-0.553-0.058l-0.04,0.099
			c-0.041,0.116-1.015,1.434-1.498,2.161c0.115-0.392,0.223-0.805,0.358-1.257c0.053-0.214,0.044-0.208,0.098-0.34
			c0.023-0.035,0.1-0.137,0.1-0.137l-0.272-0.325l-0.095,0.07c-0.436,0.301-1.127,0.584-1.17,0.597c0,0-0.039,0.019-0.052,0.027
			c-0.007,0-0.028,0-0.028,0l-0.24,0.922c-0.779,2.39-2.437,4.633-3.5,4.661c-0.362,0.014-0.575-0.242-0.608-0.734
			c1.529-0.582,2.504-1.679,2.462-2.809c-0.004-0.007-0.004-0.023-0.004-0.023c-0.012-0.251-0.112-0.587-0.358-0.816
			c-0.202-0.191-0.467-0.28-0.76-0.276c-1.325,0.041-2.293,1.183-2.966,3.506c-0.659,1.683-1.384,2.459-1.817,2.468
			c-0.107,0.01-0.167-0.104-0.177-0.328c0-0.204,0.071-0.665,0.209-1.137l1.524-5.211c0.075-0.284,0.141-0.363,0.163-0.4
			l0.099-0.104l-0.321-0.399l-0.064,0.04l-0.062,0.044c-0.487,0.32-1.262,0.678-1.477,0.777l-0.077,0.041l-1.273,4.449
			c-0.768,2.424-1.369,3.468-2.026,3.491c-0.035,0-0.069-0.007-0.103-0.042c-0.048-0.056-0.097-0.149-0.106-0.282V8.732
			c0-0.157,0.02-0.425,0.197-1.107l1.504-5.395c0.072-0.265,0.129-0.362,0.164-0.391l0.092-0.11l-0.315-0.398l-0.117,0.082
			c-0.523,0.332-1.134,0.643-1.502,0.796c0.01,0-0.049,0.032-0.049,0.032l-0.043,0.013L23.32,7.226
			c-0.361,1.133-0.689,1.88-0.973,2.371L25.77,9.595z M33.037,2.563c0.128,0,0.16,0.222,0.178,0.345
			c-0.01,0.016-0.01,0.027-0.01,0.027c0.019,0.567-0.329,1.607-1.322,2.135C31.945,3.969,32.571,2.579,33.037,2.563z"/>
		<path class="st1" d="M19.815,15.354v-1.526c0-0.228-0.024-0.444-0.067-0.649c0.582-0.239-10.318,4.351-16.349,7.16l-0.103,0.043
			l0.381,0.474l0.05-0.024c1.287-0.462,6.089-1.258,9.575-0.686l0.041,0.005l0.035-0.041c1.118-1.359,3.475-3.037,6.457-4.768
			C19.829,15.346,19.822,15.35,19.815,15.354z"/>
		<g>
			<path class="st1" d="M18.781,2.277c-0.08-0.068-0.142-0.154-0.142-0.154L18.572,2.05L18.51,2.116
				c-0.854,0.847-2.555,2.37-3.483,3.207c0-0.077,0-0.143-0.005-0.199c0-0.054,0-0.115,0-0.161c-0.07-1.153-0.378-1.496-0.693-1.748
				c-0.101-0.083-0.161-0.16-0.161-0.16l-0.061-0.082l-0.075,0.075c-1.217,1.264-2.84,2.875-3.271,3.318
				c-0.408-2.444-2.252-3.793-5.082-3.696C4.322,2.702,2.388,3.325,1.177,4.63C0.359,5.495-0.034,6.506,0.002,7.65
				c0.082,2.425,1.894,3.452,3.666,3.397c2.548-0.082,3.904-1.884,3.926-3.628c0-0.074,0.011-0.133,0.011-0.133l0.02-0.057
				L7.568,7.193l-0.255-0.17l-0.06,0.041C7.071,7.251,5.212,7.948,4.678,7.917H4.613L4.506,8.225L4.523,8.26
				c0.07,0.179,0.057,0.6-0.179,0.973C4.172,9.495,3.819,9.815,3.116,9.835C2.556,9.85,2.051,9.673,1.665,9.306
				C1.227,8.893,0.958,8.282,0.949,7.649C0.92,6.733,1.251,5.867,1.928,5.151c0.872-0.927,2.186-1.508,3.53-1.55
				c0.85-0.023,1.614,0.249,2.181,0.782c0.722,0.678,1.117,1.708,1.155,2.985c0.126,4.203-2.283,8.653-3.028,9.915l-0.033,0.059
				l0.207,0.209l0.057-0.032c0.298-0.121,0.664-0.305,1.025-0.476c0.5-0.234,1.022-0.489,1.322-0.596l0.026-0.012l0.018-0.028
				c0.891-1.521,2.569-6.075,2.493-9.052c0.056-0.042,0.751-0.606,0.751-0.606c0.398-0.326,0.832-0.587,0.984-0.59
				c0.074-0.004,0.123,0.022,0.168,0.055c0.083,0.081,0.119,0.221,0.13,0.42c0.082,2.654-1.185,6.472-1.957,8.508l-0.02,0.049
				l0.202,0.211l0.787-0.344c0.412-0.181,0.79-0.36,1.103-0.475l0.034-0.009l0.018-0.043c0.985-2.862,1.544-5.332,1.853-8.022
				c0.054-0.038,1.01-0.791,1.01-0.791c0.345-0.255,0.571-0.388,0.815-0.396c0.156-0.007,0.187,0.242,0.196,0.389
				c0.02,0.604-0.299,1.73-0.644,2.918c-0.088,0.323-0.177,0.648-0.262,0.966h1.851c0.19-0.73,0.422-1.533,0.62-2.217
				c0.218-0.741,0.392-1.37,0.476-1.719c0.177-0.798,0.342-1.551,0.332-2.109C19.321,3.04,19.108,2.526,18.781,2.277z"/>
		</g>
	</g>
</g>
</svg>