<!-- Generator: Adobe Illustrator 21.1.0, SVG Export Plug-In  -->
<svg version="1.1"
	 xmlns="http://www.w3.org/2000/svg" xmlns:xlink="http://www.w3.org/1999/xlink" xmlns:a="http://ns.adobe.com/AdobeSVGViewerExtensions/3.0/"
	 x="0px" y="0px" width="84.373px" height="54.487px" viewBox="0 0 84.373 54.487"
	 style="enable-background:new 0 0 84.373 54.487;" xml:space="preserve">
<style type="text/css">
	.st0{fill-rule:evenodd;clip-rule:evenodd;fill:#FFFFFF;}
</style>
<defs>
</defs>
<g>
	<polygon class="st0" points="11.204,54.376 11.204,54.136 10.812,54.136 10.812,50.211 11.204,50.211 11.204,49.971 9.388,49.971 
		9.388,50.223 9.787,50.223 9.787,51.962 8.1,51.962 8.1,50.211 8.498,50.211 8.498,49.971 6.682,49.971 6.682,50.211 7.075,50.211 
		7.075,54.136 6.682,54.136 6.682,54.376 8.486,54.376 8.486,54.136 8.1,54.136 8.1,52.209 9.787,52.209 9.787,54.136 9.388,54.136 
		9.388,54.376 11.204,54.376 11.204,54.376 	"/>
	<path class="st0" d="M16.451,52.209c0.053-1.359-0.75-2.349-2.162-2.349c-1.002,0-2.156,0.539-2.22,2.326
		c-0.035,0.867,0.562,2.302,2.22,2.302C15.964,54.487,16.416,53.011,16.451,52.209L16.451,52.209L16.451,52.209L16.451,52.209z
		 M15.373,52.22c0,1.23-0.299,2.044-1.084,2.044c-0.832,0-1.119-1.054-1.119-2.044c0-1.025,0.217-2.238,1.119-2.238
		C15.162,49.983,15.373,51.248,15.373,52.22L15.373,52.22L15.373,52.22z"/>
	<path class="st0" d="M21.196,51.646v-1.675H17.3v1.675h0.117c0-1.312,0.861-1.435,1.16-1.435h0.1v3.925h-0.398v0.24h1.816v-0.24
		h-0.393v-3.925h0.117c0.246,0,1.259,0.123,1.259,1.435H21.196L21.196,51.646L21.196,51.646z"/>
	<path class="st0" d="M26.049,54.376v-1.552h-0.141c0,0.861-0.697,1.312-1.183,1.312H23.46v-1.909h0.521
		c0.451,0.023,0.744,0.199,0.744,0.949h0.135v-2.05h-0.135c0,0.433-0.305,0.896-0.744,0.896H23.46v-1.81h0.972
		c1.031,0,1.23,0.258,1.406,1.359h0.111v-1.599h-3.907v0.24h0.392v3.925c-0.14,0-0.24,0-0.392,0v0.24H26.049L26.049,54.376
		L26.049,54.376z"/>
	<path class="st0" d="M30.428,54.376v-1.751h-0.129c-0.123,0.673-0.346,1.511-1.488,1.511c-0.176,0-0.322,0-0.498,0v-3.925h0.398
		v-0.24h-1.816v0.24h0.393v3.925h-0.393v0.24H30.428L30.428,54.376L30.428,54.376z"/>
	<path class="st0" d="M35.049,52.964c0-0.879-0.621-1.47-1.587-1.506c-0.914-0.035-1.611-0.035-1.611-0.685
		c0-0.603,0.609-0.714,1.084-0.714c1.242,0,1.605,1.148,1.658,1.353h0.17v-1.441h-0.17c-0.006,0.135,0,0.322-0.164,0.322
		c-0.217,0-0.627-0.433-1.552-0.433c-0.902,0-1.552,0.609-1.552,1.447c0,0.744,0.615,1.382,1.511,1.394
		c0.855,0.012,1.628,0.059,1.628,0.75c0,0.627-0.674,0.791-1.289,0.802c-1.066,0.012-1.54-0.703-1.74-1.464h-0.164v1.588h0.164
		c0,0,0.035-0.322,0.228-0.322c0.357,0,0.51,0.433,1.535,0.433C34.41,54.487,35.049,53.778,35.049,52.964L35.049,52.964
		L35.049,52.964z"/>
	<path class="st0" d="M41.752,53.187h-0.158c0,0.211-0.012,0.574-0.293,0.574c-0.287,0-0.586-0.439-0.586-0.439
		c0.076-0.135,0.299-0.562,0.299-1.359c0-0.129-0.023-0.252-0.047-0.375l-0.24,0.047c0.029,0.627,0.064,1.125-0.187,1.541
		l-1.412-1.429c0.211-0.135,0.773-0.41,0.773-0.99c0-0.398-0.234-0.896-0.978-0.896c-0.685,0-1.301,0.486-1.301,1.148
		c0,0.428,0.176,0.639,0.504,1.054c-0.24,0.111-1.054,0.51-1.054,1.3c0,0.463,0.34,1.124,1.464,1.124
		c1.125,0,1.476-0.351,1.541-0.398c0.1,0.088,0.275,0.264,0.691,0.264c0.849,0,0.949-0.58,0.972-0.779
		C41.764,53.415,41.752,53.187,41.752,53.187L41.752,53.187L41.752,53.187L41.752,53.187z M39.461,50.756
		c0,0.304-0.1,0.551-0.498,0.826c0,0-0.603-0.533-0.603-0.996c0-0.275,0.217-0.568,0.562-0.568
		C39.262,50.018,39.461,50.392,39.461,50.756L39.461,50.756L39.461,50.756L39.461,50.756z M39.924,53.937
		c-0.176,0.164-0.685,0.275-0.849,0.275c-0.598,0-1.049-0.539-1.049-1.177c0-0.234,0.1-0.627,0.31-0.75L39.924,53.937L39.924,53.937
		L39.924,53.937z"/>
	<path class="st0" d="M48.388,53.327h-0.146c0,0.287-0.088,0.738-0.31,0.738c-0.275,0-0.217-0.275-0.264-0.891
		c-0.053-0.826-0.603-0.955-0.879-1.002c0.188-0.053,1.002-0.141,1.002-1.066c0-0.627-0.264-1.136-1.377-1.136h-2.63v0.24h0.392
		v3.925h-0.392v0.24H45.6v-0.24h-0.398v-1.863h0.685c0.68,0,0.68,0.299,0.68,1.125c0,0.867,0.474,1.089,0.925,1.089
		C48.189,54.487,48.388,54.036,48.388,53.327L48.388,53.327L48.388,53.327L48.388,53.327z M46.765,51.172
		c0,0.527-0.24,0.861-0.879,0.861h-0.685v-1.822h0.75C46.549,50.211,46.765,50.644,46.765,51.172L46.765,51.172L46.765,51.172z"/>
	<path class="st0" d="M53.244,54.376v-1.552h-0.141c0,0.861-0.697,1.312-1.183,1.312h-1.265v-1.909h0.521
		c0.451,0.023,0.744,0.199,0.744,0.949h0.135v-2.05H51.92c0,0.433-0.305,0.896-0.744,0.896h-0.521v-1.81h0.972
		c1.031,0,1.23,0.258,1.406,1.359h0.111v-1.599h-3.907v0.24h0.392v3.925c-0.141,0-0.24,0-0.392,0v0.24H53.244L53.244,54.376
		L53.244,54.376z"/>
	<path class="st0" d="M57.868,52.964c0-0.879-0.621-1.47-1.587-1.506c-0.914-0.035-1.611-0.035-1.611-0.685
		c0-0.603,0.609-0.714,1.084-0.714c1.242,0,1.605,1.148,1.658,1.353h0.17v-1.441h-0.17c-0.006,0.135,0,0.322-0.164,0.322
		c-0.217,0-0.627-0.433-1.552-0.433c-0.902,0-1.552,0.609-1.552,1.447c0,0.744,0.615,1.382,1.511,1.394
		c0.855,0.012,1.628,0.059,1.628,0.75c0,0.627-0.674,0.791-1.289,0.802c-1.066,0.012-1.541-0.703-1.74-1.464H54.09v1.588h0.164
		c0,0,0.035-0.322,0.228-0.322c0.357,0,0.509,0.433,1.535,0.433C57.23,54.487,57.868,53.778,57.868,52.964L57.868,52.964
		L57.868,52.964z"/>
	<path class="st0" d="M63.092,52.209c0.053-1.359-0.75-2.349-2.162-2.349c-1.002,0-2.156,0.539-2.22,2.326
		c-0.035,0.867,0.562,2.302,2.22,2.302C62.605,54.487,63.056,53.011,63.092,52.209L63.092,52.209L63.092,52.209L63.092,52.209z
		 M62.014,52.22c0,1.23-0.299,2.044-1.084,2.044c-0.832,0-1.119-1.054-1.119-2.044c0-1.025,0.217-2.238,1.119-2.238
		C61.803,49.983,62.014,51.248,62.014,52.22L62.014,52.22L62.014,52.22z"/>
	<path class="st0" d="M68.545,53.327h-0.146c0,0.287-0.088,0.738-0.31,0.738c-0.275,0-0.217-0.275-0.264-0.891
		c-0.053-0.826-0.603-0.955-0.879-1.002c0.187-0.053,1.002-0.141,1.002-1.066c0-0.627-0.263-1.136-1.376-1.136h-2.63v0.24h0.392
		v3.925h-0.392v0.24h1.816v-0.24h-0.398v-1.863h0.685c0.679,0,0.679,0.299,0.679,1.125c0,0.867,0.474,1.089,0.926,1.089
		C68.346,54.487,68.545,54.036,68.545,53.327L68.545,53.327L68.545,53.327L68.545,53.327z M66.923,51.172
		c0,0.527-0.24,0.861-0.879,0.861h-0.685v-1.822h0.75C66.706,50.211,66.923,50.644,66.923,51.172L66.923,51.172L66.923,51.172z"/>
	<path class="st0" d="M73.29,51.646v-1.675h-3.895v1.675h0.117c0-1.312,0.861-1.435,1.16-1.435h0.1v3.925h-0.398v0.24h1.816v-0.24
		h-0.392v-3.925h0.117c0.246,0,1.259,0.123,1.259,1.435H73.29L73.29,51.646L73.29,51.646z"/>
	<path class="st0" d="M77.914,52.964c0-0.879-0.621-1.47-1.588-1.506c-0.914-0.035-1.611-0.035-1.611-0.685
		c0-0.603,0.609-0.714,1.084-0.714c1.242,0,1.605,1.148,1.658,1.353h0.17v-1.441h-0.17c-0.006,0.135,0,0.322-0.164,0.322
		c-0.217,0-0.627-0.433-1.552-0.433c-0.902,0-1.552,0.609-1.552,1.447c0,0.744,0.615,1.382,1.511,1.394
		c0.855,0.012,1.628,0.059,1.628,0.75c0,0.627-0.674,0.791-1.289,0.802c-1.066,0.012-1.541-0.703-1.74-1.464h-0.164v1.588H74.3
		c0,0,0.035-0.322,0.228-0.322c0.357,0,0.51,0.433,1.535,0.433C77.276,54.487,77.914,53.778,77.914,52.964L77.914,52.964
		L77.914,52.964z"/>
	<path class="st0" d="M39.226,27.981c-0.85,0-1.539,0.345-1.998,0.459c-0.253,0.069-0.987,0.275-1.585,0
		c-0.115-0.046-0.482-0.069-0.046,0.413c0.115,0.138,0.345,0.275,0.62,0.413c1.47,0.712,2.779,0.413,4.363-0.298
		c0.39-0.184,1.034-0.161,1.034-0.368c-0.023-0.207-0.344-0.344-0.574-0.666c-0.873-1.24-1.952-2.274-3.261-2.756
		c-0.689-0.276-1.01-0.069-0.804,0.115c0.505,0.482,0.758,1.378,1.424,2.136C38.606,27.66,38.904,27.889,39.226,27.981
		L39.226,27.981L39.226,27.981z"/>
	<path class="st0" d="M41.476,27.315c0-0.482,0.735-1.217,0.873-1.654c0.161,0.437,0.873,1.171,0.873,1.654
		c0,0.482-0.39,0.873-0.873,0.873S41.476,27.798,41.476,27.315L41.476,27.315L41.476,27.315z"/>
	<path class="st0" d="M41.476,29.704c0,0.482,0.735,1.24,0.873,1.677c0.161-0.436,0.873-1.194,0.873-1.677
		c0-0.482-0.39-0.873-0.873-0.873S41.476,29.221,41.476,29.704L41.476,29.704L41.476,29.704z"/>
	<path class="st0" d="M34.885,26.167c-0.781-0.276-1.516-0.207-1.998-0.253c-0.252-0.046-0.964-0.069-1.424-0.505
		c-0.092-0.092-0.413-0.253-0.184,0.368c0.046,0.138,0.207,0.322,0.413,0.551c1.125,1.148,2.411,1.309,4.065,1.171
		c0.436-0.023,1.148,0.138,1.194-0.069c0.046-0.184-0.299-0.367-0.414-0.712c-0.39-1.424-1.01-2.733-2.044-3.606
		c-0.528-0.459-0.918-0.367-0.781-0.138c0.299,0.597,0.23,1.493,0.597,2.411C34.426,25.662,34.632,25.96,34.885,26.167
		L34.885,26.167L34.885,26.167z"/>
	<path class="st0" d="M31.325,22.929c-0.62-0.483-1.332-0.62-1.746-0.781c-0.252-0.115-0.873-0.344-1.171-0.873
		c-0.069-0.115-0.321-0.345-0.299,0.276c0.023,0.138,0.115,0.367,0.253,0.666c0.689,1.332,1.837,1.86,3.399,2.182
		c0.39,0.115,1.01,0.436,1.102,0.275c0.115-0.138-0.184-0.413-0.161-0.781c0.023-1.401-0.184-2.779-0.896-3.858
		c-0.322-0.597-0.712-0.62-0.643-0.345c0.092,0.62-0.207,1.424-0.138,2.365C31.05,22.355,31.165,22.676,31.325,22.929L31.325,22.929
		L31.325,22.929z"/>
	<path class="st0" d="M29.167,19.025c-0.436-0.62-1.033-0.965-1.355-1.24c-0.207-0.161-0.712-0.574-0.804-1.148
		c-0.046-0.115-0.207-0.39-0.368,0.184c0,0.138,0,0.367,0.046,0.666c0.23,1.447,1.125,2.251,2.434,3.009
		c0.345,0.23,0.804,0.689,0.942,0.597c0.138-0.115-0.046-0.436,0.069-0.758c0.459-1.286,0.666-2.618,0.345-3.812
		c-0.138-0.643-0.482-0.758-0.482-0.505c-0.115,0.597-0.62,1.24-0.827,2.136C29.098,18.405,29.098,18.749,29.167,19.025
		L29.167,19.025L29.167,19.025z"/>
	<path class="st0" d="M28.432,14.592c-0.161-0.666-0.597-1.171-0.781-1.539c-0.092-0.207-0.413-0.735-0.299-1.286
		c0-0.092-0.046-0.413-0.367,0.046c-0.069,0.115-0.138,0.345-0.207,0.597c-0.276,1.332,0.253,2.342,1.125,3.468
		c0.23,0.299,0.459,0.896,0.597,0.827c0.161-0.046,0.138-0.39,0.344-0.62c0.804-0.987,1.447-2.09,1.539-3.238
		c0.092-0.597-0.161-0.85-0.23-0.62c-0.299,0.505-0.988,0.896-1.424,1.608C28.569,14.018,28.432,14.34,28.432,14.592L28.432,14.592
		L28.432,14.592z"/>
	<path class="st0" d="M29.006,10.436c0-0.666-0.252-1.24-0.344-1.608c-0.046-0.229-0.184-0.781,0.046-1.24
		c0.023-0.115,0.046-0.413-0.367-0.069c-0.069,0.092-0.184,0.276-0.322,0.505c-0.574,1.148-0.345,2.228,0.184,3.468
		c0.138,0.322,0.207,0.919,0.345,0.895c0.161,0,0.23-0.322,0.459-0.505c0.988-0.712,1.837-1.539,2.228-2.572
		c0.23-0.528,0.046-0.827-0.069-0.643c-0.391,0.39-1.103,0.574-1.699,1.148C29.259,9.93,29.075,10.206,29.006,10.436L29.006,10.436
		L29.006,10.436z"/>
	<path class="st0" d="M30.659,6.738c0.207-0.643,0.115-1.263,0.138-1.654c0-0.23,0.023-0.804,0.368-1.194
		c0.069-0.069,0.161-0.344-0.299-0.138c-0.115,0.046-0.276,0.184-0.459,0.391c-0.896,0.941-0.965,2.044-0.804,3.376
		c0.046,0.368-0.046,0.942,0.092,0.964c0.161,0.046,0.299-0.253,0.597-0.367c1.125-0.391,2.182-0.965,2.825-1.837
		c0.367-0.459,0.298-0.781,0.115-0.643c-0.482,0.253-1.217,0.253-1.952,0.62C31.05,6.325,30.797,6.531,30.659,6.738L30.659,6.738
		L30.659,6.738z"/>
	<path class="st0" d="M33.209,3.798c0.368-0.482,0.505-1.01,0.62-1.332c0.092-0.161,0.276-0.643,0.689-0.827
		c0.092-0.069,0.253-0.276-0.207-0.23c-0.092,0-0.298,0.069-0.505,0.161c-1.01,0.505-1.424,1.378-1.723,2.526
		c-0.069,0.299-0.321,0.758-0.207,0.827c0.115,0.069,0.322-0.115,0.574-0.115c1.079,0.023,2.136-0.115,2.917-0.643
		c0.436-0.253,0.482-0.528,0.298-0.482c-0.482,0.069-1.079-0.161-1.791-0.115C33.645,3.569,33.392,3.661,33.209,3.798L33.209,3.798
		L33.209,3.798z"/>
	<path class="st0" d="M36.102,1.846c0.39-0.322,0.597-0.758,0.781-1.011c0.092-0.115,0.344-0.505,0.735-0.597
		c0.092-0.023,0.252-0.184-0.138-0.23c-0.092-0.023-0.253,0-0.459,0.046c-0.964,0.23-1.493,0.919-1.952,1.883
		c-0.115,0.23-0.436,0.597-0.322,0.666c0.069,0.069,0.298-0.069,0.528,0c0.896,0.23,1.837,0.299,2.618-0.023
		c0.413-0.138,0.505-0.368,0.345-0.345c-0.436-0.046-0.896-0.345-1.539-0.436C36.516,1.754,36.263,1.777,36.102,1.846L36.102,1.846
		L36.102,1.846z"/>
	<path class="st0" d="M40.604,0.308c-0.299,0.643-1.057,0.85-1.286,0.919c-0.184,0.069-0.965,0.276-1.539-0.115
		c0.299-0.643,1.056-0.85,1.263-0.919C39.249,0.147,40.006-0.083,40.604,0.308L40.604,0.308L40.604,0.308z"/>
	<path class="st0" d="M47.08,6.853c0.505,0.184,0.942-0.046,1.125-0.459c0.092-0.184,0.138-0.299,0.138-0.482h0.666v5.397h-0.482
		c-0.827-2.25-2.894-4.432-5.305-4.96c-2.388-0.367-5.167-0.322-6.545,1.768c-0.39,0.574-0.184,1.745,0.551,2.159
		c2.457,1.493,5.144,0.804,8.405,1.263c1.653,0.23,3.468,1.171,4.203,3.009c0.712,1.768,0.574,3.582-0.138,4.777
		c-1.676,2.871-4.8,3.146-6.798,3.146c-2.09,0-4.18-0.964-5.833-1.562c-0.505-0.184-0.942,0.046-1.125,0.459
		c-0.092,0.184-0.138,0.322-0.138,0.482h-0.666c0-1.722,0-3.675,0-5.696c0.184,0,0.39,0,0.666,0.023
		c0.643,2.618,2.71,4.547,4.777,5.144c2.388,0.712,4.777,0.597,6.637-0.712c0.735-0.505,1.011-1.607,0.735-2.572
		c-0.413-1.447-2.641-1.837-4.249-1.86c-3.445-0.092-7.624-0.046-8.865-3.835c-0.482-1.814-0.184-3.812,1.125-5.167
		c2.159-2.113,5.787-2.182,8.543-1.332C45.495,6.049,46.161,6.577,47.08,6.853L47.08,6.853L47.08,6.853z"/>
	<path class="st0" d="M45.472,27.981c0.85,0,1.539,0.345,2.021,0.459c0.253,0.069,0.965,0.275,1.562,0
		c0.115-0.046,0.482-0.069,0.046,0.413c-0.115,0.138-0.345,0.275-0.62,0.413c-1.47,0.712-2.779,0.413-4.34-0.298
		c-0.413-0.184-1.057-0.161-1.034-0.368c0-0.207,0.322-0.344,0.551-0.666c0.873-1.24,1.952-2.274,3.261-2.756
		c0.689-0.276,1.01-0.069,0.804,0.115c-0.505,0.482-0.735,1.378-1.424,2.136C46.092,27.66,45.794,27.889,45.472,27.981
		L45.472,27.981L45.472,27.981z"/>
	<path class="st0" d="M49.813,26.167c0.781-0.276,1.516-0.207,1.998-0.253c0.253-0.046,0.987-0.069,1.424-0.505
		c0.092-0.092,0.413-0.253,0.184,0.368c-0.046,0.138-0.207,0.322-0.414,0.551c-1.125,1.148-2.411,1.309-4.065,1.171
		c-0.436-0.023-1.125,0.138-1.194-0.069c-0.046-0.184,0.299-0.367,0.413-0.712c0.39-1.424,1.011-2.733,2.044-3.606
		c0.528-0.459,0.918-0.367,0.781-0.138c-0.298,0.597-0.23,1.493-0.597,2.411C50.272,25.662,50.065,25.96,49.813,26.167
		L49.813,26.167L49.813,26.167z"/>
	<path class="st0" d="M53.372,22.929c0.62-0.483,1.332-0.62,1.745-0.781c0.253-0.115,0.896-0.344,1.171-0.873
		c0.069-0.115,0.322-0.345,0.299,0.276c-0.023,0.138-0.115,0.367-0.253,0.666c-0.689,1.332-1.837,1.86-3.399,2.182
		c-0.39,0.115-1.01,0.436-1.102,0.275c-0.092-0.138,0.184-0.413,0.161-0.781c-0.023-1.401,0.184-2.779,0.896-3.858
		c0.345-0.597,0.712-0.62,0.643-0.345c-0.092,0.62,0.207,1.424,0.138,2.365C53.648,22.355,53.533,22.676,53.372,22.929
		L53.372,22.929L53.372,22.929z"/>
	<path class="st0" d="M55.531,19.025c0.436-0.62,1.033-0.965,1.378-1.24c0.184-0.161,0.689-0.574,0.804-1.148
		c0.023-0.115,0.184-0.39,0.345,0.184c0.023,0.138,0,0.367-0.023,0.666c-0.23,1.447-1.148,2.251-2.457,3.009
		c-0.345,0.23-0.804,0.689-0.919,0.597c-0.138-0.115,0.023-0.436-0.092-0.758c-0.436-1.286-0.666-2.618-0.344-3.812
		c0.161-0.643,0.482-0.758,0.482-0.505c0.115,0.597,0.643,1.24,0.827,2.136C55.623,18.405,55.623,18.749,55.531,19.025
		L55.531,19.025L55.531,19.025z"/>
	<path class="st0" d="M56.266,14.592c0.183-0.666,0.597-1.171,0.781-1.539c0.092-0.207,0.413-0.735,0.299-1.286
		c0-0.092,0.069-0.413,0.391,0.046c0.069,0.115,0.115,0.345,0.184,0.597c0.276,1.332-0.253,2.342-1.102,3.468
		c-0.253,0.299-0.482,0.896-0.62,0.827c-0.161-0.046-0.115-0.39-0.322-0.62c-0.827-0.987-1.447-2.09-1.561-3.238
		c-0.092-0.597,0.161-0.85,0.229-0.62c0.299,0.505,0.988,0.896,1.424,1.608C56.151,14.018,56.266,14.34,56.266,14.592L56.266,14.592
		L56.266,14.592z"/>
	<path class="st0" d="M55.715,10.436c-0.023-0.666,0.23-1.24,0.321-1.608c0.046-0.229,0.207-0.781-0.023-1.24
		c-0.046-0.115-0.069-0.413,0.345-0.069c0.092,0.092,0.184,0.276,0.322,0.505c0.597,1.148,0.344,2.228-0.161,3.468
		c-0.138,0.322-0.23,0.919-0.368,0.895c-0.161,0-0.206-0.322-0.459-0.505c-0.964-0.712-1.837-1.539-2.228-2.572
		c-0.206-0.528-0.046-0.827,0.092-0.643c0.368,0.39,1.102,0.574,1.699,1.148C55.439,9.93,55.646,10.206,55.715,10.436L55.715,10.436
		L55.715,10.436z"/>
	<path class="st0" d="M54.038,6.738c-0.207-0.643-0.115-1.263-0.115-1.654c-0.023-0.23-0.046-0.804-0.391-1.194
		c-0.046-0.069-0.161-0.344,0.321-0.138c0.092,0.046,0.252,0.184,0.436,0.391c0.896,0.941,0.965,2.044,0.804,3.376
		c-0.046,0.368,0.046,0.942-0.092,0.964c-0.161,0.046-0.298-0.253-0.574-0.367c-1.148-0.391-2.205-0.965-2.848-1.837
		c-0.367-0.459-0.276-0.781-0.115-0.643c0.482,0.253,1.217,0.253,1.952,0.62C53.648,6.325,53.901,6.531,54.038,6.738L54.038,6.738
		L54.038,6.738z"/>
	<path class="st0" d="M51.535,3.775c-0.344-0.482-0.482-1.01-0.597-1.332c-0.092-0.161-0.298-0.643-0.689-0.827
		c-0.092-0.069-0.253-0.275,0.207-0.229c0.092,0,0.276,0.069,0.505,0.161c1.01,0.505,1.424,1.378,1.699,2.526
		c0.069,0.322,0.344,0.758,0.23,0.827c-0.115,0.092-0.322-0.115-0.597-0.115c-1.056,0.046-2.113-0.115-2.894-0.62
		c-0.459-0.276-0.482-0.551-0.322-0.505c0.505,0.069,1.103-0.161,1.814-0.115C51.099,3.546,51.375,3.638,51.535,3.775L51.535,3.775
		L51.535,3.775z"/>
	<path class="st0" d="M48.618,1.846c-0.39-0.322-0.597-0.758-0.781-1.034c-0.092-0.115-0.344-0.482-0.735-0.597
		c-0.092-0.023-0.253-0.161,0.138-0.207c0.092-0.023,0.276,0,0.459,0.046c0.965,0.23,1.493,0.919,1.952,1.86
		c0.115,0.252,0.436,0.597,0.322,0.666c-0.069,0.092-0.298-0.046-0.528,0.023c-0.896,0.23-1.837,0.275-2.595-0.023
		c-0.436-0.138-0.528-0.391-0.367-0.368c0.436-0.046,0.896-0.345,1.539-0.437C48.205,1.731,48.458,1.777,48.618,1.846L48.618,1.846
		L48.618,1.846z"/>
	<path class="st0" d="M44.094,0.308c0.299,0.643,1.056,0.85,1.286,0.919c0.184,0.069,0.964,0.276,1.539-0.115
		c-0.299-0.643-1.056-0.85-1.263-0.919C45.449,0.147,44.691-0.083,44.094,0.308L44.094,0.308L44.094,0.308z"/>
	<path class="st0" d="M11.198,42.003c0-2.604-1.84-4.358-4.705-4.462c-2.708-0.104-4.774-0.104-4.774-2.031
		c0-1.788,1.806-2.118,3.212-2.118c3.681,0,4.757,3.403,4.913,4.011h0.504v-4.271H9.844c-0.017,0.4,0,0.955-0.486,0.955
		c-0.642,0-1.858-1.285-4.601-1.285c-2.674,0-4.601,1.806-4.601,4.288c0,2.205,1.823,4.097,4.479,4.132
		c2.535,0.035,4.826,0.173,4.826,2.222c0,1.858-1.997,2.344-3.819,2.379c-3.16,0.034-4.566-2.083-5.156-4.341H0v4.705h0.486
		c0,0,0.104-0.955,0.677-0.955c1.059,0,1.51,1.285,4.549,1.285C9.306,46.517,11.198,44.416,11.198,42.003L11.198,42.003
		L11.198,42.003z"/>
	<path class="st0" d="M23.837,46.187v-0.625h-1.111V39.92c0-1.667-1.337-3.264-3.646-3.264c-1.858,0-2.674,0.781-3.368,1.441v-4.965
		h-4.115v0.625h1.059v11.806h-1.146v0.625h5.278v-0.625h-1.076v-5.347c0-1.302,0.729-2.674,2.222-2.674
		c0.972,0,1.597,0.938,1.597,1.788v6.233h-1.146v0.625H23.837L23.837,46.187L23.837,46.187z"/>
	<path class="st0" d="M33.582,41.482v-0.677c0-2.118-1.51-4.305-4.705-4.305c-2.899,0-5.052,1.753-5.052,5.087
		c0,3.299,2.379,4.931,5.243,4.931c1.84,0,4.149-0.816,4.444-3.663h-0.417c0,0.729-0.92,2.847-3.177,2.847
		c-2.708,0-3.055-2.031-3.055-4.219H33.582L33.582,41.482L33.582,41.482L33.582,41.482z M30.735,40.875h-3.872
		c0,0-0.104-3.82,1.979-3.82C31.1,37.055,30.735,40.875,30.735,40.875L30.735,40.875L30.735,40.875z"/>
	<path class="st0" d="M42.967,38.739c0-0.972-0.625-2.118-1.892-2.118c-1.58,0-2.552,1.215-2.813,1.562V36.83h-4.08v0.608h0.92
		v8.125h-1.146v0.625h5.312v-0.625h-1.111v-4.08c0-2.083,1.181-4.271,2.847-4.271c0.33,0,0.486,0.104,0.677,0.33
		c-0.608-0.191-1.597,0.417-1.597,1.441c0,0.816,0.781,1.389,1.476,1.389C42.342,40.371,42.967,39.555,42.967,38.739L42.967,38.739
		L42.967,38.739z"/>
	<path class="st0" d="M54.581,43.896v-0.712h-0.486c0,0.486,0,2.222-0.747,2.222c-0.469,0-0.729-0.295-0.729-0.746v-3.038
		c0-1.736,0.434-5.121-4.462-5.121c-2.882,0-4.34,1.146-4.34,2.482c0,0.417,0.191,1.458,1.458,1.458c0.59,0,1.371-0.642,1.371-1.441
		c0-1.007-0.937-1.424-0.937-1.424c0.451-0.226,0.885-0.399,1.528-0.399c1.181,0,2.257,0.695,2.257,1.892
		c0,3.194-6.232,0.66-6.232,4.809c0,1.094,0.625,2.639,3.055,2.639c2.396,0,2.847-0.955,3.299-1.632
		c0.556,0.938,0.99,1.597,2.292,1.597C53.869,46.482,54.581,45.562,54.581,43.896L54.581,43.896L54.581,43.896L54.581,43.896z
		 M49.39,43.705c0,1.042-1.146,1.927-1.666,1.927c-0.851,0-1.406-0.92-1.406-1.823c0-2.153,1.84-1.996,3.073-3.038V43.705
		L49.39,43.705L49.39,43.705z"/>
	<path class="st0" d="M61.081,43.809v-0.556h-0.469c0,0.677,0,2.118-1.128,2.118c-0.503,0-1.059-0.365-1.059-1.232v-6.701h1.736
		V36.83h-1.736v-3.247h-0.451c-0.295,1.511-1.302,3.247-3.42,3.247v0.608h1.146v6.701c0,1.232,0.972,2.378,2.674,2.378
		C60.613,46.517,61.081,44.694,61.081,43.809L61.081,43.809L61.081,43.809z"/>
	<path class="st0" d="M71.914,41.587c0-2.604-1.406-5.087-5.33-5.087c-3.333,0-5.052,2.222-5.052,5.087
		c0,3.195,2.048,4.931,5.226,4.931C69.483,46.517,71.914,44.972,71.914,41.587L71.914,41.587L71.914,41.587L71.914,41.587z
		 M68.963,41.431c0,1.823-0.347,4.427-2.309,4.427c-2.066,0-2.257-3.229-2.257-4.201c0-1.58,0.33-4.566,2.413-4.566
		C68.58,37.09,68.963,39.469,68.963,41.431L68.963,41.431L68.963,41.431z"/>
	<path class="st0" d="M84.373,46.187v-0.625h-1.042v-5.677c0-1.754-1.233-3.333-3.681-3.333c-1.893,0-2.847,0.885-3.403,1.58V36.83
		h-4.115v0.608h1.059v8.125h-1.146v0.625h5.312v-0.625h-1.111v-5.156c0-1.302,0.781-2.83,2.188-2.83
		c0.781,0,1.667,0.486,1.667,1.562v6.424h-1.146v0.625H84.373L84.373,46.187L84.373,46.187z"/>
</g>
</svg>