<!-- Generator: Adobe Illustrator 21.1.0, SVG Export Plug-In  -->
<svg version="1.1"
	 xmlns="http://www.w3.org/2000/svg" xmlns:xlink="http://www.w3.org/1999/xlink" xmlns:a="http://ns.adobe.com/AdobeSVGViewerExtensions/3.0/"
	 x="0px" y="0px" width="98.078px" height="31.917px" viewBox="0 0 98.078 31.917"
	 style="enable-background:new 0 0 98.078 31.917;" xml:space="preserve">
<style type="text/css">
	.st0{fill:#ED1A3B;}
</style>
<defs>
</defs>
<g>
	<g>
		<g>
			<g>
				<g>
					<g>
						<path class="st0" d="M2.862,13.215C5.677,8.005,10.541,2.323,16.285,0.426c1.18-0.294,2.748-0.625,3.794,0.181
							c0.93,0.69,1.056,1.869,0.845,2.93c-0.276,1.255-1.137,2.845-2.575,3.047c-0.259-0.001-0.479-0.092-0.646-0.274
							c-0.375-0.364-0.347-0.895-0.267-1.374c0.237-0.996,1.16-2.055,2.222-2.194c0.182-0.116,0.105-0.336,0.054-0.492
							c-0.142-0.221-0.309-0.39-0.568-0.442c-1.152-0.134-2.022,0.589-2.905,1.194c-3.351,2.696-5.785,6.158-7.83,9.609
							c-1.669,3.103-3.091,6.31-3.506,9.935c-0.203,2.629,0.63,5.209,2.969,6.474c2.534,1.343,5.814,0.434,8.355-0.256l2.334-0.717
							l4.486-1.331c4.253-1.241,9.577-1.521,13.728,0.125c2.509,1.045,5.095,2.479,6.731,4.945c0,0.065,0,0.142-0.078,0.129
							c-3.559-0.971-8.192-1.932-11.721-0.248l-0.168-0.039c-1.069-1.714-2.879-2.665-4.73-3.034
							c-5.982-0.578-10.9,2.255-16.524,2.961c-2.85,0.262-5.907,0.174-7.894-2.009c-3.136-3.133-2.767-8.662-1.278-12.439
							C1.597,15.775,2.197,14.482,2.862,13.215z"/>
						<path class="st0" d="M11.119,15.083c1.486-2.728,3.764-6.062,6.915-7.061c0.843-0.191,1.749-0.111,2.395,0.449
							c1.355,1.351,0.829,3.668,0.37,5.259c0,0.091,0.077,0.195,0.168,0.208c1.205-0.035,2.178-0.601,3.049-1.427
							c1.872-2.092,3.876-4.83,6.919-4.509c0.57,0.093,1.126,0.418,1.421,0.951c0.772,1.531,0.015,3.225-1.038,4.4
							c-0.403,0.387-0.909,0.683-1.491,0.5c-0.233-0.078-0.426-0.312-0.516-0.546c-0.217-1.076,0.409-2.071,1.278-2.638
							c0.247-0.245,0.998-0.074,0.793-0.632c-0.155-0.221-0.388-0.248-0.634-0.249c-1.478,0.617-2.442,2.129-3.302,3.395
							c-1.081,1.693-1.955,3.49-2.531,5.392c-0.158,0.686-0.355,1.579,0.044,2.215c0.296,0.402,0.788,0.572,1.294,0.445
							c1.466-0.578,2.752-1.752,3.87-2.966c2.562-3.073,3.922-6.877,7.351-9.378c1.065-0.735,2.569-1.299,3.849-0.621
							c0.207,0.078,0.374,0.351,0.634,0.248c0.207-0.206,0.352-0.646,0.766-0.541c0.946,0.016,2.034-0.032,3.005,0.062l0.065,0.091
							L45.515,8.79L40.193,19.6c-0.052,0.116-0.066,0.272-0.04,0.402c0.09,0.156,0.284,0.143,0.427,0.092
							c0.766-0.438,1.364-1.252,1.898-1.936c0.468-0.646,0.885-1.318,1.225-2.029c0.143-0.207,0.312-0.465,0.597-0.425
							c0.298,0.04,0.674-0.088,0.893,0.12c-0.34,0.906-0.874,1.732-1.343,2.586c-1.445,2.222-3.332,4.807-5.99,5.47
							c-0.44,0.051-0.984,0.087-1.32-0.238c-0.517-0.39-0.54-1.012-0.681-1.569c-0.052-0.065-0.142-0.078-0.22-0.053
							c-1.13,1.02-2.3,2.039-3.892,1.839c-0.492-0.105-0.957-0.482-1.175-0.95c-0.412-0.792-0.214-1.814-0.237-2.695
							c-0.038-0.104-0.168-0.065-0.22-0.026c-1.728,1.704-3.599,3.238-5.893,3.671c-1.063,0.126-1.981-0.188-2.691-0.942
							c-1.715-2.247-0.357-5.195,0.544-7.381c0.039-0.103,0.026-0.246-0.103-0.272c-0.622,0.049-1.218,0.151-1.814,0.239
							l-0.208,0.233c-1.395,2.585-2.907,5.326-5.413,7.247c-1.039,0.748-2.582,1.26-3.797,0.57
							c-1.267-0.872-1.378-2.427-1.217-3.864C9.826,18.057,10.414,16.544,11.119,15.083z M15.082,14.954
							c-0.73,1.474-1.474,2.961-1.506,4.709c0.077,0.324,0.27,0.7,0.632,0.792c0.388,0.105,0.713-0.101,1.011-0.294
							c1.429-1.2,2.419-2.841,3.227-4.419c0.065-0.155,0.183-0.349,0.092-0.518c-0.854-0.339-1.681-0.926-2.339-1.666l-0.142-0.026
							c-0.13,0.025-0.182,0.155-0.273,0.245L15.082,14.954z M17.308,11.957c0.049,0.777,0.772,1.454,1.458,1.715
							c0.168,0.052,0.44,0.183,0.583-0.024c0.261-0.491,0.418-1.035,0.549-1.578c0.132-0.712,0.239-1.67-0.446-2.139
							c-0.233-0.13-0.582-0.145-0.829-0.029C17.844,10.288,17.285,11.076,17.308,11.957z M34.849,17.988
							c-0.197,0.647-0.497,1.345-0.292,2.058c0.064,0.143,0.219,0.247,0.361,0.286c0.583,0.015,0.973-0.515,1.35-0.928
							c1.705-2.364,3.009-4.911,4.184-7.498c0.196-0.543,0.509-1.047,0.498-1.656c-0.012-0.13-0.142-0.22-0.245-0.286
							c-0.259-0.117-0.505,0.063-0.713,0.166c-2.298,1.767-3.538,4.301-4.686,6.706L34.849,17.988z"/>
						<path class="st0" d="M45.921,11.343c0.509-1.008,0.939-2.056,1.578-3.012c0.26-0.284,0.661-0.27,1.011-0.307l2.551,0.035
							l0.103,0.104c-0.431,1.022-0.901,2.03-1.435,3.013c-0.13,0.259-0.403,0.504-0.701,0.542c-1.036,0.022-2.137,0.083-3.121-0.011
							C45.803,11.602,45.894,11.46,45.921,11.343z"/>
						<path class="st0" d="M48.48,16.52c1.774-3.672,3.911-7.213,6.939-10.338c2.938-2.93,6.119-5.302,9.968-6.027
							c1.05-0.152,2.228-0.057,3.028,0.658c0.155,0.13,0.336,0.26,0.556,0.183c2.762-1.104,6.598-1.493,9.365-0.11
							c1.603,0.783,3.128,1.785,4.666,2.749c0.194,0.104,0.102,0.311-0.001,0.428c-0.884,0.981-1.626,1.989-2.42,3.009
							c-0.091,0.09-0.233,0.051-0.324-0.001l-4.07-2.799c-1.9-1.289-4.085-2.19-6.561-1.784c-0.272,0.142-0.144,0.479-0.184,0.738
							c0.056,2.539-0.845,4.75-2.07,6.767c-0.977,1.408-2.108,2.881-3.768,3.354c-0.726,0.153-1.425-0.07-1.863-0.654
							c-1.211-1.844-0.141-4.093,0.745-5.735c1.016-1.784,2.59-3.462,4.291-4.751C66.818,2.142,66.896,2.078,66.844,2
							c-0.168-0.169-0.453-0.066-0.66-0.028c-2.762,0.923-4.972,3.363-7.014,5.674c-3.642,4.481-6.404,9.342-7.977,14.686
							c-0.486,2.006-1.144,5.086,0.897,6.492c1.797,0.965,3.524-0.273,4.875-1.434c2.053-2.092,3.435-4.509,4.001-7.24
							c0.094-0.815,0.317-1.928-0.432-2.488c-0.672-0.3-1.231,0.255-1.686,0.719c-1.054,1.266-1.499,2.78-1.686,4.411
							c-0.468,0.387-1.026,0.631-1.519,1.005c-0.935,0.645-1.857,1.509-2.598,2.374c-0.091,0.025-0.104-0.079-0.129-0.13
							c-0.106-3.005,0.965-5.579,2.618-7.892c1.313-1.524,3.002-2.826,5.046-2.34c0.893,0.236,1.485,1.184,1.651,2.026
							c0.327,2.825-0.86,5.295-2.138,7.595c-2.058,3.231-5.307,6.496-9.424,6.107c-1.58-0.096-3.053-1.189-3.721-2.642
							c-1.556-3.101-0.48-7.087,0.566-10.088L48.48,16.52z M62.486,11.168c0.038,0.35,0.179,0.726,0.541,0.857
							c0.699,0.197,1.257-0.32,1.777-0.719c1.872-1.975,3.007-4.264,3.301-6.892c0.001-0.388,0.133-0.88-0.087-1.218
							c-0.155-0.026-0.324,0.038-0.454,0.128c-1.259,0.838-2.442,2.064-3.301,3.304C63.365,8.011,62.544,9.432,62.486,11.168z"/>
						<path class="st0" d="M65.111,19.958c1.496-1.976,3.485-4.132,5.999-4.292c0.634,0.016,1.19,0.276,1.577,0.809
							c1.07,1.584,0.169,3.614-0.226,5.219c-0.039,0.142,0.064,0.246,0.167,0.285c0.518,0.08,1.114,0.004,1.568-0.227l0.195-0.246
							c1.806-5.148,4.49-9.931,7.679-14.492c1.991-2.635,4.539-5.359,7.496-6.632c0.7-0.243,1.712-0.538,2.383-0.017
							c0.749,0.611,0.538,1.673,0.341,2.488c-0.08,0.725-0.883,0.8-1.415,0.967c-0.026-0.013-0.052-0.001-0.078-0.027
							c0.015-0.466,0.262-0.88,0.354-1.333c0.027-0.246,0.067-0.453-0.037-0.687c-0.128-0.233-0.413-0.157-0.608-0.092
							c-0.999,0.488-1.805,1.379-2.573,2.245c-2.861,3.318-4.933,7.003-6.837,10.726c-0.626,1.293-1.279,2.573-1.788,3.918
							c-0.014,0.078,0.012,0.13,0.077,0.182c0.441-0.011,0.701-0.464,1.039-0.696c2.521-2.284,4.563-4.906,6.45-7.567
							c0.403-0.193,0.869-0.191,1.335-0.229l0.09,0.026c-0.027,0.363-0.339,0.647-0.508,0.97c-2.109,3.037-4.502,5.942-7.412,8.587
							l-2.104,1.728c-0.442,0.387-0.457,0.983-0.679,1.474c-0.406,1.333-0.812,2.691-0.869,4.155
							c0.012,0.246,0.102,0.479,0.309,0.61c0.556,0.248,0.998-0.281,1.388-0.643c2.848-3.293,4.105-7.33,7.586-10.284
							c1.143-0.902,2.648-1.675,4.122-0.996c0.259,0.092,0.452,0.429,0.763,0.275c0.22-0.155,0.235-0.504,0.546-0.49
							c1.023-0.009,2.111-0.045,3.095,0.037c0.09,0.078,0.025,0.207-0.001,0.298l-0.704,1.422l-4.356,8.792
							c-0.196,0.4-0.456,0.827-0.432,1.281c0.064,0.194,0.271,0.208,0.44,0.17c0.818-0.451,1.416-1.199,1.95-1.962
							c0.534-0.749,0.964-1.538,1.472-2.3c0.273-0.128,0.648-0.075,0.946-0.036c0.181,0.169-0.053,0.388-0.092,0.582
							c-1.279,2.651-3.063,5.546-5.853,7.013c-0.649,0.322-1.544,0.616-2.254,0.225c-0.569-0.391-0.514-1.103-0.771-1.648
							c-0.052-0.078-0.181-0.065-0.246-0.027c-1.156,1.032-2.404,2.194-4.021,1.747c-1.009-0.469-1.121-1.636-1.196-2.633
							c-0.052-0.039-0.025-0.117-0.09-0.156l-0.13,0.051c-1.132,1.356-2.562,3.048-4.466,2.886
							c-0.725-0.054-1.357-0.756-1.575-1.404c-0.666-2.114,0.041-4.43,0.515-6.461c0-0.117-0.129-0.234-0.232-0.247l-1.593,0.02
							l-0.26,0.297c-1.174,2.301-2.464,4.524-4.491,6.447c-1.065,0.942-2.376,1.727-3.838,1.295
							c-1.215-0.522-1.535-1.844-1.53-3.088C61.985,25.141,63.393,22.491,65.111,19.958z M65.527,26.993
							c0.024,0.44,0.243,0.894,0.696,1.039c0.298,0.105,0.622-0.024,0.881-0.153c1.493-1.108,2.38-2.815,3.188-4.366
							c0.079-0.155,0.144-0.401-0.063-0.519c-0.776-0.391-1.525-1.002-2.144-1.691c-0.077-0.078-0.22-0.092-0.311-0.04
							c-0.56,0.749-0.925,1.577-1.317,2.404C66.014,24.715,65.531,25.749,65.527,26.993z M69.282,19.727
							c0.049,0.79,0.681,1.531,1.406,1.792c0.142,0.052,0.401,0.118,0.505-0.063c0.444-1.009,0.862-2.16,0.633-3.327
							c-0.09-0.273-0.322-0.545-0.607-0.637c-0.285-0.078-0.583,0.011-0.829,0.127C69.664,18.096,69.311,18.885,69.282,19.727z
							 M83.558,26.64c-0.027,0.375-0.12,0.842,0.164,1.127c0.155,0.156,0.401,0.17,0.595,0.106c0.766-0.399,1.26-1.213,1.729-1.885
							c1.563-2.43,2.711-5.029,3.783-7.667c0.04-0.233,0.106-0.557-0.114-0.713c-0.633-0.3-1.128,0.398-1.596,0.733
							c-2.066,2.052-3.163,4.535-4.195,7.031L83.558,26.64z"/>
						<path class="st0" d="M86.577,7.327l1.379-1.783l0.208-0.181c3.99-0.077,7.106-2.449,9.913-5.25
							c-0.014,0.376-0.184,0.725-0.314,1.061c-1.841,4.333-6.31,8.138-11.141,8.199l-1.14-0.017
							c-0.207-0.052-0.064-0.259-0.012-0.363L86.577,7.327z"/>
					</g>
				</g>
			</g>
		</g>
	</g>
	<path class="st0" d="M91.609,30.194c0-0.542,0.409-0.951,0.933-0.951c0.518,0,0.926,0.409,0.926,0.951
		c0,0.551-0.409,0.957-0.926,0.957C92.018,31.151,91.609,30.745,91.609,30.194z M92.541,31.341c0.624,0,1.156-0.484,1.156-1.147
		c0-0.657-0.533-1.141-1.156-1.141c-0.63,0-1.163,0.484-1.163,1.141C91.379,30.857,91.912,31.341,92.541,31.341z M92.299,30.285
		h0.23l0.348,0.572h0.224l-0.376-0.581c0.194-0.024,0.342-0.127,0.342-0.363c0-0.26-0.155-0.375-0.466-0.375h-0.503v1.32h0.2V30.285
		z M92.299,30.115v-0.408h0.273c0.139,0,0.288,0.03,0.288,0.194c0,0.203-0.151,0.215-0.321,0.215H92.299z"/>
</g>
</svg>