<!-- Generator: Adobe Illustrator 21.1.0, SVG Export Plug-In  -->
<svg version="1.1"
	 xmlns="http://www.w3.org/2000/svg" xmlns:xlink="http://www.w3.org/1999/xlink" xmlns:a="http://ns.adobe.com/AdobeSVGViewerExtensions/3.0/"
	 x="0px" y="0px" width="133.573px" height="25.428px" viewBox="0 0 133.573 25.428"
	 style="enable-background:new 0 0 133.573 25.428;" xml:space="preserve">
<style type="text/css">
	.st0{fill:#FFFFFF;}
</style>
<defs>
</defs>
<g>
	<path class="st0" d="M2.202,9.782H0V9.105c0,0,5.975,0,7.441,0l0.037,15.768h1.946v0.518H0.127v-0.518h2.075V9.782z"/>
	<path class="st0" d="M10.681,9.731H9.36V9.216h8.273c4.214,0,6.269,1.542,6.269,3.787c0,2.525-2.867,3.553-5.177,3.787v0.046
		c2.513,0.164,6.116,0.911,6.116,4.069c0,2.85-2.741,4.485-7.513,4.485H9.36v-0.512h1.321V9.731z M15.299,16.696h0.659
		c2.715,0,3.326-1.075,3.326-3.553c0-2.572-0.711-3.413-2.335-3.413h-1.65V16.696z M15.299,24.879h1.523
		c2.563,0,3.402-1.006,3.402-3.857c0-3.11-1.27-3.812-4.036-3.812h-0.888V24.879z"/>
	<path class="st0" d="M25.792,9.731h-1.194V9.216h13.63v5.143h-0.862c-1.219-3.81-1.549-4.628-3.021-4.628h-3.934v6.965h1.421
		c1.269,0,1.597-0.28,2.36-3.225h0.558v6.966h-0.558c-0.763-2.945-1.091-3.227-2.36-3.227h-1.421v7.669h3.908
		c1.523,0,2.056-1.778,3.046-5.518h0.862v6.029H24.472v-0.512h1.32V9.731z"/>
	<path class="st0" d="M39.555,25.391v-0.512h1.319V9.731h-1.319V9.216h8.552c4.189,0,6.396,1.169,6.396,3.904
		c0,2.431-2.005,3.693-4.492,3.716l4.695,8.043h1.04v0.512H49.96l-4.417-8.227h-0.05v7.715h1.65v0.512H39.555z M45.492,16.79h0.407
		c3.274,0,3.985-0.912,3.985-3.53c0-2.618-0.863-3.53-2.893-3.53h-1.499V16.79z"/>
	<path class="st0" d="M63.479,25.391h-7.26v-0.512h1.321V9.731h-1.321V9.216h7.26v0.515h-1.32v15.148h1.32V25.391z"/>
	<path class="st0" d="M62.34,25.391v-0.512h1.269L69.651,9.03h2.868l5.584,15.849h1.091v0.512h-7.868v-0.512h2.107l-1.955-5.938
		H66.58l-2.26,5.938h2.183v0.512H62.34z M66.783,18.426h4.518l-2.132-6.381h-0.052L66.783,18.426z"/>
	<path class="st0" d="M80.51,9.731h-1.523V9.216h7.259c3.248,0,5.33,1.542,5.33,3.693c0,2.454-2.157,3.53-4.263,3.835v0.046
		c3.577,0.303,5.532,1.846,5.532,3.997c0,2.594-2.386,4.603-7.639,4.603h-6.219v-0.512h1.523V9.731z M83.251,24.879h1.192
		c3.63,0,5.255-1.053,5.255-4.045c0-2.688-1.294-3.67-4.188-3.67h-2.259V24.879z M83.251,16.65h1.447
		c2.588,0,3.984-0.959,3.984-3.577c0-2.359-1.116-3.341-3.096-3.341h-2.335V16.65z"/>
	<path class="st0" d="M90.947,25.391v-0.512h1.471L98.307,9.03h1.625l5.584,15.849h1.015v0.512h-5.634v-0.512h1.879l-2.083-5.986
		h-5.355l-2.208,5.986h2.437v0.512H90.947z M95.514,18.38h5l-2.411-6.848h-0.05L95.514,18.38z"/>
	<path class="st0" d="M107.542,10.198h-0.05v14.681h2.131v0.512h-4.517v-0.512h1.674V9.731h-1.674V9.216h4.873l7.461,11.689h0.051
		V9.731h-2.029V9.216h4.415v0.515h-1.675v15.66h-0.862L107.542,10.198z"/>
	<path class="st0" d="M118.599,25.428v-0.513h1.522V9.767h-1.522V9.253h6.447v0.514h-2.183v6.871l7.106-6.871h-1.93V9.253h4.619
		v0.514h-1.776l-5.888,5.657l7.614,9.49h0.963v0.513h-3.806l-6.802-8.601h-0.102v8.088h2.183v0.513H118.599z"/>
	<ellipse class="st0" cx="4.785" cy="3.192" rx="3.152" ry="3.192"/>
</g>
</svg>